<svg width="178" height="42" viewBox="0 0 178 42" fill="none" xmlns="http://www.w3.org/2000/svg">
<mask id="mask0_3210_452" style="mask-type:luminance" maskUnits="userSpaceOnUse" x="0" y="0" width="178" height="42">
<path d="M177.025 0H0V41.7779H177.025V0Z" fill="white"/>
</mask>
<g mask="url(#mask0_3210_452)">
<path d="M41.4097 20.7048C41.4097 32.1392 32.1392 41.4097 20.7048 41.4097C9.269 41.4097 0 32.1392 0 20.7048C0 9.269 9.2697 0 20.7048 0C32.1392 0 41.4097 9.2697 41.4097 20.7048Z" fill="white" fill-opacity="0.32"/>
<path d="M23.465 20.705H17.5992V14.4935H23.465C23.8729 14.4935 24.2768 14.5738 24.6536 14.7299C25.0304 14.886 25.3728 15.1148 25.6612 15.4032C25.9496 15.6916 26.1784 16.0339 26.3344 16.4107C26.4905 16.7875 26.5708 17.1914 26.5708 17.5992C26.5708 18.0071 26.4905 18.4109 26.3344 18.7877C26.1784 19.1646 25.9496 19.5069 25.6612 19.7953C25.3728 20.0837 25.0304 20.3125 24.6536 20.4686C24.2768 20.6246 23.8729 20.705 23.465 20.705ZM23.465 10.3525H13.4583V31.0574H17.5992V24.8459H23.465C27.4672 24.8459 30.7118 21.6014 30.7118 17.5992C30.7118 13.5971 27.4672 10.3525 23.465 10.3525Z" fill="white"/>
<path d="M63.1606 18.1738C63.1606 17.0345 62.2854 16.3441 61.1482 16.3441H58.0998V19.9823H61.1489C62.2861 19.9823 63.1606 19.2919 63.1606 18.1738ZM55.2129 27.6057V13.8027H61.5539C64.5025 13.8027 66.107 15.7953 66.107 18.1738C66.107 20.5318 64.4819 22.5237 61.5539 22.5237H58.0998V27.6057H55.2129ZM67.8645 27.6057V17.5429H70.4441V18.8642C71.1558 18.0103 72.356 17.2993 73.576 17.2993V19.8195C73.3919 19.7791 73.1689 19.7593 72.8644 19.7593C72.0104 19.7593 70.8711 20.2464 70.4441 20.8781V27.6057H67.8645ZM82.2603 22.4423C82.2603 20.9177 81.3633 19.5964 79.7383 19.5964C78.1313 19.5964 77.2383 20.9177 77.2383 22.443C77.2383 23.9873 78.1313 25.3086 79.7383 25.3086C81.3633 25.3086 82.2603 23.9873 82.2603 22.4423ZM74.5539 22.4423C74.5539 19.658 76.5053 17.2993 79.7383 17.2993C82.9913 17.2993 84.9423 19.6573 84.9423 22.4423C84.9423 25.2272 82.9913 27.6057 79.7383 27.6057C76.5053 27.6057 74.5539 25.2272 74.5539 22.4423ZM93.6293 24.1906V20.7145C93.2023 20.063 92.2673 19.5964 91.4133 19.5964C89.9303 19.5964 88.9133 20.7549 88.9133 22.443C88.9133 24.1495 89.9303 25.3086 91.4133 25.3086C92.2673 25.3086 93.2023 24.842 93.6293 24.1906ZM93.6293 27.6057V26.1017C92.8563 27.0768 91.8003 27.6057 90.6003 27.6057C88.1413 27.6057 86.2503 25.7363 86.2503 22.4423C86.2503 19.2516 88.1003 17.2993 90.6003 17.2993C91.7583 17.2993 92.8563 17.7879 93.6293 18.8033V13.8027H96.2313V27.6057H93.6293ZM105.426 27.6057V26.1215C104.756 26.8537 103.577 27.6057 101.971 27.6057C99.8173 27.6057 98.8003 26.4267 98.8003 24.5156V17.5429H101.381V23.4994C101.381 24.8618 102.092 25.3086 103.19 25.3086C104.185 25.3086 104.979 24.7599 105.426 24.1898V17.5429H108.008V27.6057H105.426ZM109.947 22.4423C109.947 19.4342 112.142 17.2993 115.151 17.2993C117.164 17.2993 118.383 18.1738 119.034 19.0682L117.346 20.6529C116.879 19.9618 116.167 19.5964 115.273 19.5964C113.707 19.5964 112.61 20.735 112.61 22.443C112.61 24.1495 113.707 25.3086 115.273 25.3086C116.167 25.3086 116.879 24.9022 117.346 24.2309L119.034 25.8171C118.383 26.7114 117.164 27.6057 115.151 27.6057C112.142 27.6057 109.947 25.4715 109.947 22.4423ZM121.254 24.9022V19.7996H119.628V17.5429H121.254V14.8592H123.836V17.5429H125.826V19.7996H123.836V24.2111C123.836 24.8413 124.16 25.3086 124.73 25.3086C125.115 25.3086 125.483 25.1663 125.623 25.0042L126.173 26.9748C125.788 27.3218 125.096 27.6057 124.018 27.6057C122.209 27.6057 121.254 26.671 121.254 24.9022ZM142.363 27.6057V21.6492H135.959V27.6057H133.075V13.8027H135.959V19.1283H142.363V13.8034H145.27V27.6057H142.363ZM154.509 27.6057V26.1215C153.838 26.8537 152.659 27.6057 151.053 27.6057C148.898 27.6057 147.882 26.4267 147.882 24.5156V17.5429H150.463V23.4994C150.463 24.8618 151.174 25.3086 152.273 25.3086C153.268 25.3086 154.062 24.7599 154.509 24.1898V17.5429H157.09V27.6057H154.509ZM166.283 27.6057V21.4268C166.283 20.0645 165.574 19.5971 164.475 19.5971C163.458 19.5971 162.687 20.1664 162.238 20.7357V27.6064H159.658V17.5429H162.238V18.8033C162.869 18.0719 164.089 17.2993 165.674 17.2993C167.849 17.2993 168.886 18.5187 168.886 20.4291V27.6057H166.284H166.283ZM171.962 24.9022V19.7996H170.338V17.5429H171.963V14.8592H174.545V17.5429H176.536V19.7996H174.545V24.2111C174.545 24.8413 174.869 25.3086 175.439 25.3086C175.825 25.3086 176.192 25.1663 176.334 25.0042L176.882 26.9748C176.497 27.3218 175.804 27.6057 174.727 27.6057C172.918 27.6057 171.962 26.671 171.962 24.9022Z" fill="white" fill-opacity="0.32"/>
</g>
</svg>
