<svg width="156" height="22" viewBox="0 0 156 22" fill="none" xmlns="http://www.w3.org/2000/svg">
<path d="M37.7661 9.22087L37.5139 10.5026H37.47C37.1327 9.75774 36.1679 8.76615 34.1093 8.76615C30.7487 8.76615 27.3455 11.3296 26.5904 15.3407C25.9188 18.8554 27.6827 21.9572 31.6314 21.9572C33.102 21.9572 34.7838 21.3799 35.6225 20.1789H35.6665L35.4143 21.5026H39.1093L41.42 9.17893H37.7661V9.22087ZM36.5903 15.3407C36.3381 16.5388 35.2047 18.5249 32.8513 18.5249C30.583 18.5249 30.1211 16.5402 30.3293 15.4216C30.5815 14.0157 31.8836 12.2375 34.0243 12.2375C36.1254 12.2375 36.8395 13.8916 36.5873 15.3407H36.5903ZM43.5637 9.22087H47.0505L46.7982 10.5026H46.8422C47.3041 9.92517 48.1443 8.76615 50.3289 8.76615L49.6574 12.4901C47.8935 12.5334 46.5783 12.8625 46.2967 14.7649L44.9948 21.5487H41.1825L43.5637 9.22087ZM52.8479 4.38258H56.6308L54.867 13.6867H54.9506L59.276 9.22087H63.6864L57.9314 14.6379L61.2496 21.5444H57.0062L54.5694 15.589H54.54L53.4052 21.5444H49.6663L52.8479 4.38258ZM69.7102 8.76615C65.9269 8.76615 62.5252 11.9921 61.8947 15.4245C61.2232 19.0618 63.7011 21.9587 67.3138 21.9587C68.6576 21.9525 69.9714 21.5647 71.0968 20.8415C72.2731 20.1386 73.3656 19.0633 74.2498 17.6992H70.4269C69.796 18.3604 69.0822 18.8568 67.905 18.8568C66.4346 18.8568 65.383 17.9879 65.4123 16.5417H74.7961C74.9227 16.253 74.9645 16.0451 75.0483 15.589C75.762 11.7843 73.5371 8.76615 69.7102 8.76615ZM65.9269 14.02C66.2203 13.2753 67.2291 11.9128 69.2038 11.9128C71.1367 11.9128 71.6411 13.2767 71.6411 14.02H65.9269ZM21.048 21.5444H24.7869V4.36816H21.5935L14.9557 14.1255H14.9118V4.36816H11.7197L0 21.5444H4.5366L11.1318 11.7872H11.1757V21.5444H14.4103L20.9645 11.7872H21.048V21.5444ZM84.5661 9.22087H82.2135L82.8854 5.58353H79.6088L79.3566 6.98941C79.0625 8.60164 78.0537 9.09668 76.6672 9.22228H76.6233L76.0371 11.9935H77.8843L76.078 21.5199H79.8171L81.6234 11.9935H84.0178L84.5661 9.22087Z" fill="white" fill-opacity="0.32"/>
<path d="M142.535 16.8731C141.318 19.6848 138.377 21.9596 135.017 21.9596C131.234 21.9596 128.841 19.0237 129.554 15.3431C130.226 11.7058 133.631 8.76855 137.411 8.76855C140.729 8.76855 142.983 10.9596 143.041 13.9647H139.258C139.006 13.0958 138.461 12.2284 136.864 12.2284C135.1 12.146 133.629 13.5923 133.293 15.3316C132.956 17.1098 133.881 18.4739 135.688 18.4739C137.242 18.4739 138.181 17.6049 138.713 16.8197H142.535V16.8731ZM111.451 0L104.184 4.38357H106.243L99.6472 14.1408H99.5645V4.38357H96.3277L89.7297 14.1423H89.6858V4.38498H85.9028V21.5612H89.1804L95.7755 11.804H95.8193V21.5612H99.0541L110.732 4.38498H112.58L111.451 0ZM118.592 21.5454H114.897L115.149 20.2218H115.105C114.222 21.4198 112.583 22 111.114 22C107.122 22 105.401 18.8967 106.073 15.3836C106.829 11.371 110.273 8.80897 113.592 8.80897C115.65 8.80897 116.616 9.80197 116.952 10.5454H116.996L117.248 9.26359H120.944L118.592 21.5454ZM112.29 18.5287C114.601 18.5287 115.776 16.544 116.028 15.3446C116.28 13.8579 115.567 12.2413 113.465 12.2413C111.325 12.2413 110.02 14.0195 109.771 15.4254C109.519 16.583 110.023 18.5287 112.293 18.5287H112.29ZM130.31 9.22468H127.958L128.629 5.58734H125.353L125.1 6.99323C124.807 8.60545 123.799 9.10049 122.411 9.22609H122.367L121.822 11.9973H123.669L121.863 21.5237H125.602L127.408 11.9973H129.802L130.31 9.22468ZM146.063 4.38649H149.802L148.668 10.5064H148.711C149.509 9.34876 150.602 8.76996 152.24 8.76996C153.417 8.76996 154.762 9.22468 155.393 10.134C156.191 11.3319 156.107 12.4087 155.686 14.6417L154.384 21.5064H150.645L151.906 14.8091C152.032 14.2317 152.368 12.2038 150.396 12.2038C148.295 12.2038 147.959 14.0658 147.833 14.6864L146.531 21.5093H142.836L146.063 4.38649Z" fill="white" fill-opacity="0.32"/>
</svg>
