<svg width="122" height="29" viewBox="0 0 122 29" fill="none" xmlns="http://www.w3.org/2000/svg">
<mask id="mask0_3210_472" style="mask-type:luminance" maskUnits="userSpaceOnUse" x="0" y="0" width="122" height="29">
<path d="M121.74 0H0V28.9967H121.74V0Z" fill="white"/>
</mask>
<g mask="url(#mask0_3210_472)">
<path d="M12.7119 3.47559C5.80851 3.47559 0.276855 9.12002 0.276855 16.0039C0.276855 22.9544 5.83063 28.5323 12.7119 28.5323C19.5933 28.5323 25.147 22.888 25.147 16.0039V3.47559H12.7119Z" fill="white" fill-opacity="0.32"/>
<path d="M8.17566 16.2912C7.13578 15.2508 6.89238 13.6571 7.51184 12.4175L8.17566 13.0816C8.26417 12.6831 8.50757 12.3732 8.81736 12.0855C9.10502 11.7978 9.45905 11.5543 9.81298 11.4437L9.14927 10.7353C10.3883 10.0934 11.9815 10.3369 13.0214 11.3994C14.3711 12.7496 14.3711 14.9409 13.0214 16.2691C11.6717 17.5971 9.45905 17.6192 8.17566 16.2912ZM13.7958 10.6025C11.9593 8.76532 9.06076 8.76532 7.29056 10.6025C5.45409 12.4397 5.45409 15.3836 7.29056 17.1986C8.97225 18.881 11.6496 19.0359 13.4639 17.5307L14.8136 18.9253C14.6145 19.3237 14.6588 19.7884 15.0127 20.0762L17.5573 22.6217C17.9556 23.0202 18.553 23.0202 18.9513 22.6217L19.2389 22.334C19.6372 21.9355 19.6372 21.338 19.2389 20.9395L16.6723 18.394C16.3846 18.1062 15.9199 17.9955 15.5216 18.1948L14.172 16.8003C15.6323 14.9409 15.4774 12.2626 13.7958 10.6025Z" fill="white"/>
<path d="M50.7469 15.5391C50.7469 13.1485 50.6588 11.1341 50.5928 9.42977H55.703L55.9915 12.0638H56.0795C56.8325 10.8686 58.8008 8.98705 61.8987 8.98705C65.7716 8.98705 68.6922 11.5768 68.6922 17.2213V28.5543H62.8278V17.9739C62.8278 15.5391 61.9659 13.8125 59.8632 13.8125C58.2262 13.8125 57.2751 14.9635 56.8986 16.0481C56.7433 16.3801 56.6553 16.9999 56.6553 17.5312V28.5322H50.7909V15.5391H50.7469ZM83.5165 17.5312C83.5165 17.1991 83.4724 16.7786 83.4284 16.4908C83.0959 14.8528 81.7903 13.569 79.9981 13.569C77.3208 13.569 75.9271 16.0038 75.9271 19.0363C75.9271 22.268 77.52 24.3044 79.954 24.3044C81.6802 24.3044 83.0299 23.1092 83.3392 21.4269C83.4284 20.9842 83.4944 20.5637 83.4944 20.0324L83.5165 17.5312ZM89.4017 0.775075V22.8214C89.4017 24.9685 89.4909 27.2263 89.5569 28.5322H84.2915L84.003 25.699H83.915C82.7206 27.8461 80.4406 28.9306 77.9846 28.9306C73.493 28.9306 69.8866 25.057 69.8866 19.1248C69.8426 12.6615 73.8475 8.94278 78.3831 8.94278C80.7291 8.94278 82.5433 9.73967 83.4064 11.0898H83.4944V0.775075H89.4017ZM103.099 16.8228C103.099 15.3841 102.457 12.9493 99.7576 12.9493C97.2795 12.9493 96.2832 15.1849 96.1291 16.8228H103.099ZM96.1952 20.8957C96.3944 23.3306 98.7833 24.5258 101.55 24.5258C103.541 24.5258 105.178 24.238 106.771 23.7732L107.524 27.8018C105.621 28.5543 103.209 28.997 100.687 28.997C94.2257 28.997 90.5532 25.212 90.5532 19.2577C90.5532 14.4323 93.5179 9.07559 100.111 9.07559C106.219 9.07559 108.563 13.901 108.563 18.6379C108.563 19.634 108.475 20.5415 108.364 20.9842H96.1731L96.1952 20.8957ZM109.847 15.7161C109.847 12.8829 109.759 11.0898 109.692 9.40763H114.759L114.958 12.9493H115.114C116.065 10.1603 118.41 8.98705 120.225 8.98705C120.756 8.98705 121.021 8.98705 121.463 9.07559V14.6758C121.021 14.5872 120.556 14.5208 119.87 14.5208C117.724 14.5208 116.242 15.6719 115.843 17.5312C115.754 17.9296 115.754 18.3945 115.754 18.8814V28.5986H109.891V15.7161H109.847ZM42.494 9.4519H48.358V28.5764H42.494V9.4519ZM36.896 8.78782C36.896 6.68502 37.936 5.11349 41.0559 5.06922C40.8567 4.58223 40.7682 4.0731 40.7682 3.47543C40.7682 2.2802 41.2107 1.23981 41.9187 0.398765C41.5869 0.354493 41.255 0.354492 40.9231 0.354492C35.1038 0.354492 30.9883 3.32059 30.9883 8.5886V9.3855H28.5101V13.7903H30.9883V28.51H36.9181V13.7903H40.0822V9.40763H36.896V8.78782Z" fill="white" fill-opacity="0.32"/>
<path d="M48.9107 3.47523C48.9107 5.42308 47.3838 6.95034 45.4366 6.95034C43.5337 6.95034 41.9626 5.35667 41.9626 3.47523C41.9626 1.59367 43.4894 0 45.4366 0C47.3838 0 48.9107 1.57154 48.9107 3.47523Z" fill="white" fill-opacity="0.32"/>
</g>
</svg>
