<svg width="163" height="27" viewBox="0 0 163 27" fill="none" xmlns="http://www.w3.org/2000/svg">
<mask id="mask0_3210_483" style="mask-type:luminance" maskUnits="userSpaceOnUse" x="0" y="0" width="163" height="27">
<path d="M162.459 0.947266H0.0460205V26.0507H162.459V0.947266Z" fill="white"/>
</mask>
<g mask="url(#mask0_3210_483)">
<mask id="mask1_3210_483" style="mask-type:luminance" maskUnits="userSpaceOnUse" x="0" y="0" width="162" height="27">
<path d="M161.857 0.947266H0.0460205V26.0507H161.857V0.947266Z" fill="white"/>
</mask>
<g mask="url(#mask1_3210_483)">
<path d="M5.22057 18.1945V9.89058H8.1891V7.97754H0.0458984V9.89058H3.03142V18.1945H5.22057Z" fill="white" fill-opacity="0.32"/>
<path d="M17.8488 18.1945V7.97754H15.6639V11.991H11.7585V7.97754H9.58643V18.1945H11.7585V13.904H15.6639V18.1945H17.8488Z" fill="white" fill-opacity="0.32"/>
<path d="M27.0819 18.1945V16.2815H22.0308V13.9636H25.7489L26.6688 12.055H22.0308V9.89058H27.0819V7.97754H19.8586V18.1945H27.0819Z" fill="white" fill-opacity="0.32"/>
<path d="M33.8027 18.1945V14.0105L37.7082 7.97754H35.2294L32.7167 12.0848L30.1783 7.97754H27.6953L31.6306 14.0105V18.1945H33.8027Z" fill="white" fill-opacity="0.32"/>
<path d="M47.5206 18.3903C48.3416 18.4041 49.1559 18.2389 49.9068 17.9064C50.6577 17.5738 51.3272 17.0818 51.869 16.4645V12.5447H47.001V14.4407H49.697V15.6677C49.0832 16.1713 48.3142 16.4467 47.5206 16.4475C45.6679 16.4475 44.3221 15.0244 44.3221 13.0944C44.3221 11.1643 45.6679 9.73695 47.5206 9.73695C48.0037 9.73951 48.4784 9.86273 48.9017 10.0956C49.3249 10.3286 49.6832 10.6637 49.9439 11.0706L51.7455 10.0906C51.3058 9.37076 50.6831 8.78034 49.9408 8.3799C49.1986 7.97946 48.3634 7.78326 47.5206 7.81121C44.5393 7.81121 42.0861 9.86053 42.0861 13.0944C42.0861 16.3282 44.5351 18.3903 47.5206 18.3903Z" fill="white" fill-opacity="0.32"/>
<path d="M58.4408 18.3779C61.5328 18.3779 63.7815 16.1751 63.7815 13.0947C63.7815 10.0143 61.5328 7.81152 58.4408 7.81152C55.3488 7.81152 53.1128 10.0143 53.1128 13.0947C53.1128 16.1751 55.3616 18.3779 58.4408 18.3779ZM58.4408 16.4478C56.554 16.4478 55.3445 14.995 55.3445 13.0947C55.3445 11.1945 56.554 9.73735 58.4408 9.73735C60.3275 9.73735 61.5498 11.1774 61.5498 13.0947C61.5498 15.012 60.3232 16.4478 58.4408 16.4478Z" fill="white" fill-opacity="0.32"/>
<path d="M69.4925 18.1945V9.89058H72.4615V7.97754H64.3179V9.89058H67.3034V18.1945H69.4925Z" fill="white" fill-opacity="0.32"/>
<path d="M99.8597 18.3904C100.75 18.4116 101.628 18.1835 102.395 17.7319C103.164 17.2801 103.789 16.6228 104.204 15.8342L102.304 14.9138C102.073 15.3644 101.723 15.7435 101.292 16.0099C100.861 16.2765 100.366 16.4204 99.8597 16.4263C97.9724 16.4263 96.6019 14.9778 96.6019 13.0179C96.6019 11.0581 97.9724 9.60941 99.8597 9.60941C100.366 9.61818 100.859 9.76314 101.29 10.0294C101.72 10.2957 102.071 10.6731 102.304 11.1219L104.204 10.1846C103.789 9.39787 103.162 8.74332 102.394 8.2952C101.626 7.84708 100.748 7.62339 99.8597 7.64951C96.7416 7.64951 94.3229 9.82671 94.3229 13.0222C94.3229 16.2176 96.7379 18.399 99.8597 18.399V18.3904Z" fill="white" fill-opacity="0.32"/>
<path fill-rule="evenodd" clip-rule="evenodd" d="M114.187 19.3573L110.396 14.9179L111.921 13.6396L115.728 18.0792L114.187 19.3573Z" fill="white" fill-opacity="0.32"/>
<path fill-rule="evenodd" clip-rule="evenodd" d="M112.169 18.1516C111.614 18.3121 111.041 18.3925 110.465 18.3901C107.33 18.3901 105.043 16.1491 105.043 13.0133C105.043 9.87747 107.33 7.64062 110.465 7.64062C113.599 7.64062 115.89 9.89446 115.89 13.0133C115.908 14.1106 115.596 15.1879 114.996 16.1064L113.424 14.2786C113.556 13.8657 113.621 13.4341 113.616 13.0005C113.616 11.0534 112.372 9.59203 110.456 9.59203C108.539 9.59203 107.304 11.0577 107.304 13.0005C107.304 14.9433 108.539 16.409 110.456 16.409H110.678L112.169 18.1388V18.1516Z" fill="white" fill-opacity="0.32"/>
<path d="M122.142 18.3906C125.302 18.3906 126.827 16.631 126.827 14.0448V7.81152H124.57V13.9852C124.57 15.4338 123.743 16.4307 122.142 16.4307C120.54 16.4307 119.693 15.4338 119.693 13.9852V7.81152H117.449V14.0619C117.449 16.6182 118.978 18.3906 122.134 18.3906H122.142Z" fill="white" fill-opacity="0.32"/>
<path d="M131.083 18.2075V7.81152H128.872V18.2075H131.083Z" fill="white" fill-opacity="0.32"/>
<path d="M150.512 18.2075V16.2604H145.371V13.9042H149.468L150.094 11.9571H145.371V9.75863H150.512V7.81152H143.161V18.2075H150.512Z" fill="white" fill-opacity="0.32"/>
<path d="M156.35 18.2075C159.608 18.2075 161.866 16.1496 161.866 13.0137C161.866 9.87802 159.599 7.81152 156.35 7.81152H152.254V18.2075H156.35ZM156.35 16.2604H154.464V9.75863H156.35C158.48 9.75863 159.608 11.1774 159.608 13.0137C159.628 13.4462 159.556 13.8778 159.399 14.2811C159.241 14.6844 159.001 15.0505 158.695 15.356C158.389 15.6614 158.022 15.8997 157.618 16.0554C157.214 16.2111 156.783 16.2809 156.35 16.2604Z" fill="white" fill-opacity="0.32"/>
<path d="M135.354 9.75863V18.2075H133.139V7.81152H138.003C140.166 7.81152 141.491 9.22612 141.491 11.1604C141.534 11.8599 141.33 12.5526 140.914 13.1166C140.498 13.6807 139.897 14.0802 139.216 14.2451L141.554 18.2075H138.999L136.954 14.5092L135.907 12.5664H137.679C138.569 12.5664 139.237 12.0338 139.237 11.1604C139.237 10.2869 138.569 9.75863 137.679 9.75863H135.354Z" fill="white" fill-opacity="0.32"/>
<path fill-rule="evenodd" clip-rule="evenodd" d="M85.0846 26.0511L89.3267 18.6973H80.8425L85.0846 26.0511Z" fill="white" fill-opacity="0.32"/>
<path fill-rule="evenodd" clip-rule="evenodd" d="M80.8424 18.697H74.8418L85.0854 0.947266L95.3272 18.697H89.3266L85.0854 11.3474L80.8424 18.697Z" fill="white" fill-opacity="0.32"/>
</g>
</g>
</svg>
