<svg width="104" height="23" viewBox="0 0 104 23" fill="none" xmlns="http://www.w3.org/2000/svg">
<path d="M17.8186 0.954867L17.8538 0.796661L17.9065 0.656056L17.9592 0.515559L18.1348 0.480355L18.2403 0.410052L18.3632 0.339751H18.5038L18.6442 0.287051L18.8024 0.357352L18.9429 0.304653H19.101L19.2415 0.251953L19.3821 0.304653L19.5402 0.322254L19.6806 0.287051L19.8388 0.339751H19.9793H20.1199L20.2779 0.322254L20.4185 0.357352L20.5766 0.26945H20.7172L20.8752 0.374956L21.0158 0.339751L21.1738 0.357352L21.3144 0.251953L21.4549 0.287051L21.613 0.357352L21.7536 0.304653L21.9116 0.251953L22.0698 0.26945L22.2103 0.339751L22.3333 0.427656L22.386 0.568258L22.4913 0.673658L22.5616 0.796661L22.544 0.954867V1.09547V1.25357L22.4913 1.39417L22.544 1.55238L22.5792 1.69298V1.83348L22.5265 1.99169L22.5616 2.13229L22.544 2.29039L22.5616 2.43099L22.5792 2.5892L22.5968 2.7473L22.544 2.8879L22.5968 3.04611L22.5089 3.18671L22.4913 3.34481V3.48542V3.64362L22.5265 3.78412L22.5792 3.94233L22.5968 4.08293L22.5089 4.24103L22.4913 4.38163L22.4737 4.53984L22.5265 4.68044L22.544 4.83854L22.5968 4.97914V5.13735L22.5089 5.27785L22.5265 5.43605L22.5089 5.59426V5.73476V5.89296L22.5792 6.03357L22.4737 6.19167L22.5265 6.33227L22.544 6.49048L22.5616 6.63108L22.544 6.78918L22.5265 6.92978L22.4913 7.08799L22.5616 7.22849L22.4913 7.38669L22.544 7.5449L22.5089 7.6854L22.544 7.8436L22.5265 7.98421V8.14231V8.28291L22.544 8.44112L22.5792 8.59921L22.5089 8.73982L22.6143 8.86282L22.6495 9.00343L22.7548 9.12642L22.8778 9.21433H23.0359L23.1765 9.16163L23.317 9.19673H23.4751L23.6332 9.28463L23.7738 9.17913L23.9318 9.23193H24.0724L24.2304 9.26703H24.3885L24.5291 9.21433L24.6871 9.28463L24.8453 9.21433L24.9858 9.28463H25.1439L25.2844 9.21433L25.4426 9.26703L25.6006 9.19673H25.7412L25.8993 9.26703L26.0399 9.16163L26.1979 9.17913L26.356 9.28463L26.4966 9.26703L26.6546 9.21433H26.8128L26.9533 9.26703L27.1114 9.23193L27.2695 9.28463L27.4101 9.23193L27.5505 9.16163L27.7086 9.21433L27.7789 9.05612L27.8668 8.96833L28.0424 8.89803V8.73982L27.9898 8.59921V8.44112L28.0951 8.30051L28.0248 8.14231V8.00181L28.1127 7.8436L28.0072 7.703L28.0424 7.5449L28.0951 7.4043L27.9898 7.24609L28.0951 7.10548L28.0072 6.94739L28.0424 6.80678L28.0775 6.64858L28.0072 6.50797V6.34987L28.0951 6.20927L28.0424 6.05117L28.1127 5.91057L28.0424 5.75236L28.1127 5.61176L28.0248 5.45366L28.0951 5.31305L27.9898 5.15485L28.06 5.01424L27.9898 4.85614L28.0951 4.69794L28.0072 4.55733L28.0424 4.39923L27.9898 4.25863L28.0424 4.10053L28.06 3.95993L28.0072 3.80172L28.0424 3.66112L28.06 3.50302L27.9898 3.36241L28.0951 3.20421L28.0248 3.0636L28.0072 2.90551L28.0248 2.7473L28.0424 2.6067L28.0072 2.4486L28.06 2.30799L28.0248 2.14989L28.0072 2.00929L28.06 1.85108L28.0248 1.71048L28.0424 1.55238V1.39417L28.0775 1.25357L28.0248 1.09547V0.954867V0.796661L28.1302 0.691261L28.2181 0.58586L28.2707 0.427656L28.4113 0.392558L28.5342 0.339751H28.6748H28.8329L28.9735 0.287051L29.1315 0.357352L29.2721 0.374956L29.4126 0.339751L29.5707 0.357352L29.7112 0.304653L29.8694 0.251953L30.0099 0.339751L30.168 0.304653L30.3085 0.287051L30.4667 0.251953L30.6071 0.357352L30.7476 0.322254L30.9058 0.26945L31.0463 0.374956L31.2044 0.304653L31.3449 0.339751L31.5031 0.304653L31.6435 0.322254L31.8017 0.251953L31.9422 0.339751L32.1003 0.26945L32.2233 0.374956L32.3638 0.392558L32.5219 0.427656L32.6273 0.515559L32.6098 0.691261L32.7327 0.796661L32.7502 0.954867L32.7327 1.09547V1.23607V1.39417L32.7678 1.53478L32.7327 1.69298L32.7151 1.83348L32.7327 1.99169L32.7854 2.13229L32.7327 2.27289L32.6799 2.43099L32.7678 2.5716V2.7298L32.7854 2.8703L32.6975 3.02851L32.6799 3.16911L32.7502 3.30971V3.46781L32.7678 3.60842L32.7502 3.76662L32.6799 3.90712L32.7502 4.06533L32.7678 4.20593L32.7854 4.36403V4.50463L32.7502 4.66284L32.7678 4.80344L32.7854 4.94405L32.7678 5.10215L32.7502 5.24275L32.7327 5.40096L32.6799 5.54145L32.6975 5.69966V5.84026L32.6799 5.99836V6.13897L32.7502 6.27957L32.7151 6.43778V6.57827L32.7678 6.73648L32.6799 6.87708L32.7327 7.03518V7.17579L32.6799 7.33399L32.7151 7.4746L32.6975 7.61509L32.6799 7.7733L32.7678 7.9139V8.072L32.7854 8.21261L32.7678 8.37082L32.7151 8.51142V8.66952V8.81012L32.7327 8.96833L32.7854 9.10882L32.6799 9.26703L32.7502 9.40763L32.7678 9.56573V9.70634L32.6975 9.84694V10.0051V10.1457L32.7151 10.3039L32.7502 10.4445L32.7151 10.6027L32.6799 10.7432L32.7502 10.9014L32.7151 11.042L32.6799 11.2001L32.7854 11.3407L32.6799 11.4989L32.7854 11.6395L32.7327 11.7976V11.9382L32.6799 12.0788L32.7678 12.2369L32.7502 12.3775L32.7327 12.5357L32.7854 12.6763V12.8344L32.7502 12.975L32.6799 13.1332L32.7327 13.2737L32.7502 13.4319V13.5725V13.7306L32.7327 13.8712L32.7502 14.0118L32.7151 14.17L32.7327 14.3105L32.7678 14.4687L32.7327 14.6093L32.7678 14.7674L32.6799 14.908L32.7502 15.0662V15.2069L32.7151 15.3475L32.6799 15.5056L32.7854 15.6462L32.6975 15.8044V15.9449L32.7678 16.1031V16.2437L32.7854 16.4018V16.5424L32.7678 16.7006L32.7327 16.8412L32.6975 16.9993L32.7151 17.1399L32.7854 17.2981L32.7678 17.4386L32.6975 17.5968L32.7327 17.7374L32.7678 17.8955L32.7327 18.0361V18.1943L32.7502 18.3349L32.6799 18.493V18.6336L32.7854 18.7918L32.7151 18.9323L32.7854 19.0905L32.7502 19.2311V19.3892L32.7854 19.5298V19.688L32.6975 19.8286L32.7854 19.9867L32.7151 20.1273L32.6975 20.2856L32.7151 20.4261L32.7854 20.5843L32.7151 20.7249L32.6975 20.883L32.7854 21.0236L32.6975 21.1818L32.7854 21.3224V21.4805V21.6211L32.7151 21.7793L32.7327 21.9198L32.6799 22.0604L32.5395 22.1307L32.4867 22.2713L32.399 22.3943L32.2584 22.447L32.1003 22.4646L31.9422 22.3592L31.8017 22.4295L31.6611 22.447L31.5031 22.3592L31.3625 22.3943H31.222L31.0638 22.3416L30.9234 22.447L30.7652 22.3943L30.6247 22.447L30.4841 22.3943L30.3261 22.4646L30.1855 22.447L30.045 22.3592L29.8869 22.4646L29.7464 22.3943H29.5883H29.4477L29.3072 22.447H29.1491H29.0086L28.8504 22.3592L28.71 22.4119H28.5694L28.4465 22.324L28.3235 22.2537L28.1654 22.2186L28.1302 22.0604L28.1127 21.9198V21.7793L28.06 21.6387L28.0248 21.4805L28.0775 21.3399L28.1302 21.1818L28.06 21.0412V20.9006L28.0248 20.7425L28.1302 20.6019L28.06 20.4613L28.0424 20.303L28.0775 20.1624L28.0248 20.0043L28.0951 19.8637L28.1302 19.7055L28.0424 19.565L28.0248 19.4244L28.06 19.2662L28.1302 19.1256L28.0424 18.9675L28.0775 18.8269L28.0424 18.6863L28.0248 18.5282L28.1127 18.3876L28.1302 18.2294L28.1127 18.0888L28.0951 17.9307V17.7901L28.0424 17.6495L28.0951 17.4914L28.0248 17.3508L28.1127 17.1926L28.0424 17.052L28.1302 16.8939L28.0248 16.7533L28.0775 16.6127V16.4545L28.06 16.314L28.0248 16.1558L28.0775 16.0152L28.0424 15.8571L28.06 15.7165L28.0248 15.5759L28.1127 15.4176L28.0951 15.2772L28.0248 15.1189L28.1127 14.9783L28.06 14.8202L28.0248 14.6796V14.5214V14.3808L28.0951 14.2227L28.06 14.0821L28.1127 13.9239L28.0424 13.8009L27.9546 13.6779L27.9019 13.5549L27.7965 13.4846L27.7437 13.3265L27.5681 13.344L27.4451 13.2386L27.287 13.2562L27.1466 13.3265L26.9884 13.2386L26.8479 13.2562L26.6898 13.3089L26.5493 13.344L26.4087 13.3616L26.2506 13.3089L26.1101 13.2386L25.952 13.344L25.8114 13.2913L25.6534 13.2737L25.5128 13.2386L25.3547 13.2913L25.2141 13.344H25.0561H24.9156L24.7574 13.2737L24.617 13.2913L24.4588 13.3265L24.3183 13.344L24.1602 13.3265L24.0197 13.2737H23.8615L23.721 13.3616L23.5629 13.2562L23.4048 13.2737L23.2642 13.2562L23.1413 13.3792L22.9833 13.344L22.8954 13.467L22.8075 13.5725L22.7372 13.6779L22.6319 13.7834L22.5792 13.9239L22.6319 14.0821L22.5792 14.2227L22.5968 14.3633L22.5616 14.5214L22.6319 14.662L22.6495 14.8202L22.6671 14.9607L22.6495 15.1013L22.6143 15.2595L22.6495 15.4002L22.6143 15.5583V15.6989L22.6319 15.8395L22.5792 15.9977L22.6671 16.1382L22.6495 16.2964L22.6671 16.437L22.5968 16.5776L22.6671 16.7357L22.5968 16.8763L22.6846 17.0345L22.5968 17.175L22.6495 17.3156L22.6319 17.4738L22.6495 17.6144L22.6319 17.7725L22.6846 17.9131L22.5792 18.0713L22.6671 18.2118L22.6846 18.3524L22.6143 18.5106L22.6671 18.6512L22.6143 18.8093L22.5968 18.9499L22.6143 19.1081L22.6846 19.2487L22.5792 19.4068L22.6671 19.5474L22.5792 19.688L22.6846 19.8461L22.5792 19.9867L22.6671 20.1449L22.5792 20.2856L22.6143 20.4436L22.6319 20.5843L22.6671 20.7425L22.6495 20.883V21.0236L22.5968 21.1818L22.6319 21.3224L22.6846 21.4805L22.6671 21.6211L22.5616 21.7793L22.5792 21.9023L22.5265 22.0429L22.4386 22.1307L22.3684 22.2362L22.2981 22.3943L22.1576 22.447L21.9995 22.3943L21.8414 22.447L21.7008 22.4646H21.5428L21.3846 22.3592H21.2441H21.086L20.9279 22.4295H20.7873H20.6293L20.4712 22.4119L20.3306 22.447L20.1726 22.3943H20.032L19.8739 22.3767H19.7158L19.5753 22.4119L19.4172 22.3767L19.2591 22.447L19.1186 22.4646L18.9605 22.4119H18.8024L18.6618 22.3943L18.5038 22.447L18.3632 22.3767L18.2227 22.3592L18.0821 22.3064L17.9768 22.1834L17.9065 22.0604V21.9198L17.8889 21.7793L17.8713 21.6211L17.9065 21.4805L17.8889 21.3399L17.9065 21.1818L17.8889 21.0412L17.8186 20.883L17.8362 20.7425L17.8186 20.6019L17.8538 20.4436L17.801 20.303L17.8538 20.1449L17.801 20.0043L17.8713 19.8461L17.8538 19.7055L17.8186 19.565L17.8889 19.4068L17.8186 19.2662L17.9065 19.1081V18.9675V18.8093L17.8713 18.6687V18.5106L17.924 18.37V18.2118L17.8889 18.0713L17.801 17.9307L17.8889 17.7725L17.8538 17.6319L17.9065 17.4738L17.8186 17.3332L17.8362 17.175L17.8713 17.0345L17.9065 16.8763L17.8538 16.7357L17.9065 16.5776L17.8713 16.437L17.8538 16.2964L17.8889 16.1382L17.801 15.9977L17.9065 15.8395V15.6989L17.8889 15.5408V15.4002L17.8713 15.2419L17.8186 15.1013L17.8889 14.9607L17.8362 14.8026L17.8186 14.662V14.5038L17.9065 14.3633L17.8889 14.2051L17.9065 14.0645L17.924 13.9064L17.8362 13.7658L17.924 13.6076L17.8538 13.467L17.9065 13.3089L17.8538 13.1683V13.0277L17.8713 12.8696L17.8889 12.729L17.8362 12.5708L17.8713 12.4302L17.8889 12.2721L17.801 12.1315L17.8538 11.9733L17.924 11.8328L17.8889 11.6746L17.8186 11.534L17.8713 11.3759L17.9065 11.2353L17.8889 11.0771L17.8713 10.9365L17.924 10.796L17.8538 10.6378L17.924 10.4972L17.8889 10.3391L17.8362 10.1985V10.0402L17.8889 9.89964L17.8362 9.74154V9.60094L17.9065 9.44273L17.8362 9.30223L17.8713 9.14403L17.8889 9.00343L17.8186 8.84532L17.8889 8.70472L17.8362 8.56412L17.8186 8.40591L17.8538 8.26531L17.8186 8.10721V7.9666L17.924 7.8084L17.801 7.6679L17.8538 7.5273L17.8889 7.36909L17.8186 7.22849V7.07039L17.8713 6.92978L17.8186 6.77158L17.8362 6.63108L17.9065 6.47287L17.8713 6.33227L17.8538 6.17417L17.8889 6.03357V5.87536L17.924 5.73476L17.8889 5.57666L17.801 5.43605L17.8538 5.27785V5.13735L17.9065 4.97914L17.8889 4.83854L17.8186 4.68044L17.9065 4.53984L17.8713 4.38163L17.9065 4.24103L17.801 4.08293L17.9065 3.94233L17.8538 3.78412L17.8713 3.64362L17.8362 3.48542L17.8186 3.34481L17.9065 3.18671L17.8186 3.04611L17.8362 2.8879L17.8713 2.7473L17.8186 2.6067L17.9065 2.4486L17.8362 2.29039L17.8889 2.14989L17.8538 1.99169V1.85108L17.8362 1.69298L17.8713 1.55238V1.39417L17.8362 1.25357L17.8713 1.09547L17.8186 0.954867Z" fill="white" fill-opacity="0.32"/>
<path d="M58.4325 4.31142L58.2915 4.27622L58.1336 4.32903L57.9937 4.36412L57.8527 4.45203L57.7297 4.52233L57.6248 4.64533L57.6068 4.80343L57.6248 4.96164L57.5538 5.08464L57.4838 5.22524L57.5188 5.38334L57.5018 5.52394V5.68215L57.4139 5.82275L57.4838 5.98085L57.5188 6.12146L57.4838 6.26206L57.5018 6.42016L57.4488 6.57837L57.5188 6.71897L57.5018 6.85957L57.5368 7.01767L57.6248 7.14068V7.29888L57.7647 7.40428L57.7478 7.58009L57.9057 7.66789L57.9756 7.79089L58.0456 7.91389L58.1516 8.037L58.1866 8.1775L58.2915 8.283L58.4325 8.3708L58.5374 8.47631L58.6084 8.59931L58.7664 8.65201L58.8363 8.81021H59.0292L59.1352 8.91561L59.2582 8.98591L59.3812 9.07382L59.4511 9.23192L59.6451 9.21432L59.732 9.35492L59.855 9.44282L59.9779 9.53073L60.1009 9.61853L60.2418 9.65373L60.3648 9.74153L60.5058 9.79423L60.6287 9.89973L60.7336 10.0051L60.8566 10.093L60.9796 10.1809L61.0495 10.3214L61.1555 10.4269L61.2435 10.5499L61.3664 10.6379L61.4364 10.7783L61.5943 10.8312L61.6473 10.9893L61.7353 11.1123L61.8932 11.165L61.9632 11.3056L62.0692 11.4111L62.1561 11.5341L62.2621 11.6395L62.3321 11.7801L62.402 11.9031L62.508 12.0261L62.49 12.2018L62.578 12.3249L62.666 12.4479L62.7189 12.5885L62.8419 12.6939L62.8239 12.852L62.9468 12.9751L62.9998 13.1156L63.1048 13.2211L63.1408 13.3792L63.1758 13.5198L63.2457 13.6604V13.8186L63.3157 13.9416L63.3507 14.0997L63.4217 14.2227L63.4387 14.3809L63.5616 14.5039L63.6146 14.6445L63.5447 14.8202L63.6326 14.9432V15.1014L63.7725 15.2068L63.7906 15.365L63.7556 15.5407L63.8255 15.6637L63.9135 15.8043L63.9485 15.945L63.9655 16.1031V16.2437L63.9305 16.4019L63.9835 16.5425L64.0365 16.7006L64.0015 16.8412L64.0185 16.9994V17.14L63.9655 17.2981L64.0185 17.4387L64.0534 17.5968V17.7374L63.9835 17.8956L64.0015 18.0362L63.9655 18.1943V18.3349L63.9485 18.4931V18.6337L63.8605 18.7742L63.8785 18.9324L63.7556 19.0554L63.6846 19.196L63.6496 19.3366L63.5966 19.4772V19.6177L63.5796 19.7759L63.5266 19.9165L63.3687 20.0219L63.2987 20.1449L63.2108 20.2679L63.1758 20.4085L63.1048 20.5491L63.0698 20.7073L62.9818 20.8127L62.8069 20.8831L62.7189 21.0061L62.613 21.094L62.508 21.1994L62.402 21.3224L62.3501 21.463L62.1561 21.4806L62.0692 21.6036L61.9632 21.709L61.8583 21.7969L61.7173 21.8848L61.5774 21.9375L61.4364 21.9726L61.3315 22.0956H61.1725L61.0495 22.2011L60.9096 22.2362L60.7866 22.3241L60.6287 22.3592L60.4877 22.4119L60.3468 22.4471L60.2069 22.4998L60.0839 22.5701L59.9079 22.5174L59.785 22.6052L59.6271 22.5877H59.4691L59.3282 22.6052L59.1882 22.6755L59.0473 22.7458L58.8893 22.7283H58.7314L58.5904 22.6404L58.4325 22.7458L58.2915 22.6931H58.1336L57.9937 22.6404H57.8357L57.6767 22.6755L57.5368 22.6052L57.3789 22.658L57.2379 22.5525L57.0969 22.535L56.939 22.5701L56.7991 22.4822L56.6412 22.535L56.4822 22.4998L56.3592 22.3768L56.2013 22.4295L56.0433 22.3768L55.9384 22.2362L55.7974 22.1835H55.6395L55.4985 22.1308L55.3936 22.0078L55.2357 21.9726L55.1297 21.8496L54.9897 21.8145L54.8318 21.7793L54.7608 21.6036H54.5859L54.4619 21.5157L54.41 21.34L54.269 21.2697L54.111 21.217L54.0061 21.1115L53.9881 20.9181L53.8302 20.8654L53.7242 20.7424L53.7072 20.5843L53.5312 20.514L53.4783 20.3734L53.4263 20.2152L53.2684 20.1449L53.2853 19.9692L53.1454 19.8638L53.1094 19.7232L53.0924 19.565L52.9695 19.442L52.9165 19.319L52.9515 19.1433L52.8635 19.0027L52.8985 18.8621L52.8115 18.7215L52.8815 18.5634L52.7935 18.4228L52.8635 18.2822L52.7755 18.124L52.8285 17.9835L52.7755 17.8253L52.8635 17.6847L52.7755 17.5441L52.8115 17.386L52.7585 17.2454L52.8115 17.0872L52.8465 16.9466L52.7755 16.7885L52.8115 16.6479L52.8285 16.5073L52.7585 16.3492L52.8635 16.2086L52.7935 16.0504L52.7755 15.9097L52.7935 15.7516L52.8115 15.611L52.9695 15.5583L53.1094 15.6286L53.2684 15.5759H53.4083L53.5493 15.6286L53.7072 15.5934L53.8471 15.611H54.0061L54.146 15.6461L54.304 15.5759L54.4449 15.5934L54.5859 15.5759L54.7438 15.6461L54.8838 15.6637L55.0417 15.5934L55.1827 15.6286H55.3406H55.4816H55.6215L55.7794 15.5934L55.9204 15.6637H56.0783L56.2193 15.6461H56.3592L56.5182 15.611L56.6581 15.5583L56.8161 15.6286L56.957 15.5934L57.115 15.5759L57.2559 15.5583L57.4139 15.6461L57.5538 15.6286L57.6068 15.7516L57.5188 15.9097L57.5888 16.068L57.5538 16.2086L57.6068 16.3667L57.5888 16.5073L57.6767 16.6655L57.6068 16.8061L57.6767 16.9642L57.6068 17.1224L57.6598 17.263L57.7117 17.4035L57.7478 17.5617L57.6418 17.7199L57.7478 17.8604L57.7647 18.0186L57.7827 18.1592L57.8177 18.2998L57.8877 18.4579L58.0106 18.5458L58.1166 18.6688L58.2565 18.7215H58.4145L58.5904 18.6512L58.7314 18.6864L58.8893 18.6688L58.9423 18.5106L59.0123 18.3876L59.0653 18.247L59.1882 18.1416L59.2582 18.0186L59.2232 17.8429L59.2582 17.7023L59.2751 17.5617L59.2932 17.4211L59.3812 17.2805L59.3112 17.1224V16.9818L59.2932 16.8412L59.2751 16.6831L59.3112 16.5425L59.2751 16.4019L59.2402 16.2613V16.1031V15.9626L59.2052 15.8043L59.2232 15.6461L59.1702 15.5231L59.1172 15.3826L59.0822 15.2244L59.0292 15.0838L58.8893 14.9959L58.8544 14.8554L58.7664 14.7324L58.6434 14.6269L58.6084 14.4688L58.4675 14.3809L58.3795 14.2755L58.3095 14.1173L58.1686 14.047L58.0986 13.924L57.9937 13.801L57.8357 13.7658L57.7297 13.6604L57.6068 13.5725L57.5018 13.4671L57.4488 13.3089L57.3259 13.2035L57.2199 13.0981L57.0969 13.0102L56.957 12.9399L56.9221 12.7642L56.7641 12.7115L56.6412 12.6236L56.5352 12.5182L56.4652 12.3776L56.3592 12.2721L56.2543 12.1667L56.1313 12.0788L55.9903 12.0085L55.9204 11.868L55.8324 11.7449L55.6745 11.6922L55.5865 11.5516L55.4985 11.4286L55.3236 11.3935L55.3056 11.2002L55.1127 11.1826L55.0417 11.042L54.9368 10.919L54.8668 10.7783L54.7089 10.7433L54.6209 10.6026L54.5329 10.4972L54.3919 10.4093L54.287 10.3039L54.216 10.1633L54.164 10.0051L54.0231 9.93483L53.9181 9.82943L53.8302 9.70643L53.7242 9.58343L53.6542 9.46043L53.5493 9.33742L53.4963 9.19682L53.4083 9.07382L53.3034 8.96831L53.2504 8.82771L53.1454 8.70471L53.1624 8.52901L53.0744 8.406L53.0225 8.2654L53.0044 8.1072L53.0225 7.9667L52.8815 7.82609L52.9515 7.66789L52.9345 7.52728L52.8285 7.38679L52.8115 7.22858L52.7755 7.07037V6.92988L52.7935 6.77167L52.8115 6.63107L52.8635 6.47297L52.8465 6.31476L52.7585 6.17416L52.7755 6.01606L52.8635 5.87545L52.8465 5.71725L52.7935 5.55915L52.8635 5.41855V5.26034V5.11973L52.9345 4.96164L52.9515 4.82103L52.8635 4.66283L52.9515 4.52233L52.8985 4.36412L52.9695 4.20592L52.9864 4.06542L52.9695 3.90721L53.0044 3.76661L53.1094 3.62601L53.0744 3.46791L53.1804 3.3449L53.2504 3.2219L53.2853 3.0637V2.90549L53.4263 2.81769L53.5143 2.69469V2.51888L53.6722 2.44858L53.6892 2.27288L53.7772 2.14988L53.8832 2.04448L54.0231 1.97418L54.093 1.83357L54.216 1.74567L54.375 1.69297L54.4449 1.55236L54.5329 1.41176L54.6559 1.34157L54.7788 1.23606L54.9548 1.25366L55.0417 1.11306L55.1646 1.02515L55.3406 1.04276L55.4635 0.937356L55.5865 0.884656L55.7444 0.867055L55.8504 0.72645H56.0084L56.1313 0.638547L56.2893 0.656149L56.4122 0.533148L56.5701 0.515544L56.7281 0.568246L56.851 0.445243L57.01 0.497943L57.168 0.480448L57.3079 0.445243L57.4488 0.374942H57.6068H57.7478L57.9057 0.445243L58.0456 0.374942H58.2046L58.3445 0.410145L58.5024 0.427747L58.6434 0.339844L58.8014 0.410145L58.9423 0.445243L59.0822 0.480448L59.2402 0.427747H59.3812L59.5221 0.497943L59.662 0.568246L59.82 0.515544L59.9609 0.55075H60.1189L60.2418 0.691352L60.3998 0.656149L60.5407 0.673751L60.6807 0.761548L60.8386 0.744054L60.9446 0.867055L61.0675 0.954853L61.2435 0.937356L61.3834 0.972454L61.5064 1.07796L61.5943 1.20096L61.7703 1.21846L61.8752 1.30636L62.0332 1.35906L62.1561 1.42936L62.2091 1.60506L62.3321 1.69297L62.455 1.76327L62.578 1.85118L62.684 1.95658L62.8239 2.00927L62.8949 2.16748L63.0348 2.23778L63.0528 2.39588L63.2108 2.46618L63.2277 2.64189L63.4037 2.69469L63.4387 2.85279L63.4917 2.9934L63.5966 3.09879L63.6846 3.2219V3.38L63.7725 3.52061L63.7906 3.66121L63.8425 3.80181L63.7556 3.95991L63.7725 4.11812L63.8425 4.25872L63.7556 4.41682L63.8075 4.57503L63.8425 4.71563V4.87373V5.03194L63.7725 5.17254L63.8075 5.33064L63.7556 5.48885L63.8075 5.62945L63.8605 5.78755L63.8425 5.94576V6.08636L63.7556 6.24446L63.8255 6.40266L63.7376 6.54316L63.7556 6.70137L63.8075 6.87707L63.6496 6.78927L63.4917 6.80677L63.3507 6.85957L63.1928 6.89467H63.0528L62.9119 6.85957L62.7539 6.78927L62.613 6.89467L62.455 6.84197L62.3151 6.80677L62.1741 6.77167L62.0162 6.82437L61.8752 6.87707H61.7173H61.5774L61.4184 6.78927L61.2785 6.82437L61.1375 6.85957H60.9796H60.8386L60.6807 6.78927H60.5407L60.3828 6.85957L60.2418 6.77167L60.1009 6.78927L59.9429 6.77167L59.803 6.85957L59.6451 6.77167L59.5041 6.84197L59.3462 6.85957L59.2052 6.84197L59.0653 6.77167L59.1172 6.64867L59.0653 6.49046L59.1003 6.34986V6.20936L59.1172 6.05116L59.0473 5.91055L59.0123 5.75245L58.9943 5.61185V5.45364L59.0123 5.31304L58.9423 5.17254V5.01434L58.9063 4.87373L58.8363 4.73313L58.8194 4.57503L58.6604 4.50473L58.5735 4.39922L58.4325 4.31142Z" fill="white" fill-opacity="0.32"/>
<path d="M79.5829 0.410169L79.7239 0.392567L79.8638 0.445267L79.9868 0.515568L80.0398 0.673669L80.2157 0.726474L80.2677 0.867078L80.2327 1.02518L80.2677 1.18338L80.1627 1.32388L80.2507 1.48209L80.1977 1.64029L80.2157 1.78079L80.1977 1.939V2.0796V2.2377V2.3959L80.1797 2.53651L80.2507 2.69461V2.85281L80.2157 2.99342L80.1977 3.15152L80.1797 3.30972L80.2327 3.45033L80.1797 3.60843L80.1977 3.76663V3.90724L80.2677 4.06534L80.1797 4.20594L80.1977 4.36415L80.1097 4.48715L80.0048 4.57495L79.8638 4.64525L79.7239 4.66285L79.5829 4.73315H79.442H79.284L79.1441 4.75075H79.0031L78.8452 4.68045H78.7042L78.5643 4.73315L78.4064 4.69805L78.2654 4.64525L78.1075 4.71555L77.9665 4.64525L77.8266 4.68045L77.6676 4.76835L77.5277 4.73315H77.3697L77.2288 4.75075L77.0889 4.73315L76.9298 4.69805L76.7899 4.66285L76.632 4.76835L76.491 4.69805L76.3331 4.68045L76.1921 4.71555L76.0872 4.83855L75.9992 4.94406L75.9462 5.06706L75.8582 5.19006L75.8233 5.33066L75.8413 5.48876L75.8943 5.62937L75.8582 5.78757L75.8063 5.92818L75.8763 6.08628V6.22688V6.38509L75.8063 6.52558L75.8943 6.66619L75.9112 6.82439L75.8763 6.965V7.1231L75.8063 7.2637L75.8582 7.42191L75.8233 7.56251V7.72061L75.8763 7.86122L75.8233 8.01942L75.9112 8.15992L75.8233 8.31812L75.9112 8.45872V8.61683V8.75743V8.91564L75.8582 9.05624V9.21434L75.8943 9.35495L75.8763 9.51315L75.8233 9.65364L75.8763 9.81185L75.8063 9.95246L75.9112 10.1106L75.8763 10.2512L75.8943 10.4094L75.8763 10.55L75.8063 10.7081L75.9112 10.8487L75.8413 11.0069L75.8233 11.1474V11.3056V11.4462L75.8943 11.6043L75.8763 11.7449L75.9112 11.9031V12.0437L75.8763 12.2018L75.8943 12.3424L75.9112 12.5006L75.8413 12.6411V12.7993L75.8233 12.9399L75.8413 13.098L75.8063 13.2386L75.8763 13.3968L75.8063 13.5374V13.6955L75.8943 13.8361L75.8582 13.9943L75.8943 14.1348V14.2754L75.9112 14.4336L75.8943 14.5742L75.8763 14.7323L75.9112 14.873L75.8233 15.0312V15.1717L75.8413 15.3299L75.8233 15.4705L75.8943 15.6286L75.8063 15.7692L75.8582 15.9274V16.068L75.9112 16.2261L75.8763 16.3667L75.8582 16.5249L75.8763 16.6655L75.8233 16.8236L75.8413 16.9642V17.1223V17.2629L75.8233 17.4211L75.8943 17.5617L75.9112 17.7198L75.7883 17.8604L75.8413 18.0186L75.8063 18.1592L75.9112 18.3173L75.8943 18.4579L75.8233 18.6161L75.8582 18.7566L75.9112 18.9148V19.0554V19.2135L75.8943 19.3717L75.8233 19.5123L75.8763 19.6704L75.8943 19.811L75.8582 19.9693V20.1099V20.268L75.8063 20.4086L75.8582 20.5668L75.8943 20.7073V20.8655L75.8413 21.0061L75.8763 21.1642L75.8582 21.3048L75.8763 21.463L75.8943 21.6211L75.9112 21.7617L75.8582 21.9199L75.9112 22.0605L75.8063 22.201L75.7353 22.3241L75.6833 22.4295L75.5773 22.5174L75.4894 22.6228L75.3664 22.7282L75.2265 22.7458L75.0686 22.6579L74.9276 22.6404H74.7697L74.6287 22.6755L74.4708 22.7107L74.3308 22.7458H74.1719L74.0319 22.6579L73.874 22.6755L73.733 22.6579H73.5751L73.4341 22.6755L73.2762 22.7458L73.1363 22.6404L72.9773 22.6755L72.8374 22.7107H72.6794H72.5385L72.3805 22.6755L72.2396 22.6404L72.0816 22.7107L71.9417 22.6404L71.7838 22.6931L71.6248 22.6755L71.4849 22.6931L71.3439 22.6755L71.2209 22.6228L71.098 22.5525L70.993 22.4646L70.8701 22.3592L70.9051 22.201L70.8351 22.0605L70.887 21.9199V21.7617L70.9051 21.6211L70.8521 21.463L70.7821 21.3224L70.8171 21.1642V21.0236L70.9051 20.8831L70.7991 20.7249L70.8701 20.5843L70.8521 20.4262L70.887 20.2856V20.1274L70.8521 19.9868L70.9051 19.8287L70.8351 19.688L70.9051 19.5298V19.3893L70.8351 19.2311L70.9051 19.0905L70.8171 18.9324V18.7918L70.887 18.6336L70.7991 18.493V18.3349L70.9051 18.1943L70.887 18.0361L70.8351 17.8956V17.7374L70.887 17.5968L70.8521 17.4387L70.9051 17.2981L70.8521 17.1399L70.7991 16.9993L70.9051 16.8412L70.7991 16.7006V16.56L70.9051 16.4019L70.8521 16.2613L70.7991 16.1031V15.9625L70.9051 15.8044L70.8171 15.6638V15.5056L70.9051 15.3651L70.8171 15.2069L70.8521 15.0663L70.887 14.9082L70.7821 14.7676L70.887 14.6093L70.7991 14.4687L70.8521 14.3106L70.887 14.17L70.8171 14.0118V13.8712L70.9051 13.7131L70.8521 13.5725L70.9051 13.4144L70.8521 13.2738L70.9051 13.1156L70.8171 12.975L70.9051 12.8169L70.7991 12.6763L70.8521 12.5181L70.7991 12.3775L70.9051 12.2194L70.8171 12.0788L70.8351 11.9206L70.7991 11.7801L70.8351 11.6219L70.8701 11.4813L70.8171 11.3232L70.8521 11.1826L70.8701 11.0244L70.7991 10.8838L70.887 10.7257L70.8351 10.5851L70.7991 10.4269L70.8351 10.2864L70.8521 10.1282L70.7991 9.98756L70.8521 9.82945L70.8171 9.68885V9.53065L70.8701 9.39004L70.8171 9.23194L70.8351 9.09134L70.8521 8.93313L70.887 8.79264L70.8171 8.63443L70.8351 8.49382L70.8171 8.33573L70.887 8.19512L70.9051 8.03692L70.8171 7.89631L70.8701 7.73821L70.8521 7.58001L70.8701 7.4394V7.2813L70.8351 7.1407L70.9051 6.98249V6.842L70.8701 6.68379L70.887 6.54319L70.8521 6.38509L70.7991 6.24448L70.8701 6.08628L70.8351 5.94567L70.8171 5.78757L70.7821 5.62937L70.887 5.48876L70.8701 5.33066L70.7991 5.20766L70.8351 5.03186L70.7121 4.94406L70.6242 4.82105L70.4832 4.78585L70.3602 4.71555L70.2203 4.76835L70.0794 4.68045L69.9214 4.75075L69.7804 4.66285L69.6405 4.69805L69.4815 4.73315L69.3416 4.75075L69.2007 4.64525L69.0427 4.73315L68.9028 4.71555L68.7618 4.69805H68.6209H68.4629L68.323 4.75075L68.182 4.71555L68.0241 4.69805H67.8831L67.7432 4.76835L67.5853 4.69805L67.4443 4.64525L67.3033 4.73315H67.1454L67.0055 4.75075L66.8645 4.66285L66.7416 4.59255H66.5836L66.4956 4.48715L66.4077 4.36415L66.3547 4.22354L66.4077 4.06534L66.3547 3.92473L66.3377 3.76663L66.3197 3.60843L66.3027 3.46793L66.3547 3.30972L66.3197 3.15152V3.01102L66.3377 2.85281L66.3547 2.69461L66.3727 2.55411L66.4257 2.3959L66.4077 2.2377V2.0972L66.4257 1.939V1.78079L66.3547 1.64029L66.3907 1.48209V1.32388L66.3377 1.18338L66.4257 1.02518L66.3727 0.884575L66.4426 0.74397L66.5486 0.656172L66.6186 0.533172L66.7416 0.480365L66.8825 0.462868L67.0055 0.357364H67.1454L67.3033 0.339867H67.4443L67.6022 0.410169H67.7432H67.8831L68.0411 0.392567L68.182 0.339867L68.34 0.445267L68.4809 0.374965L68.6209 0.357364H68.7798L68.9198 0.427665H69.0777H69.2187L69.3586 0.410169L69.5176 0.357364L69.6575 0.410169L69.8154 0.445267L69.9564 0.374965L70.1143 0.410169L70.2553 0.445267L70.3952 0.339867L70.5532 0.445267L70.6941 0.339867L70.8521 0.374965L70.993 0.392567L71.133 0.445267L71.2909 0.357364L71.4319 0.374965L71.5898 0.392567L71.7308 0.339867H71.8887L72.0297 0.374965L72.1696 0.445267L72.3275 0.392567L72.4685 0.374965H72.6084L72.7674 0.357364L72.9073 0.392567L73.0653 0.374965L73.2062 0.410169L73.3472 0.392567L73.5051 0.357364L73.645 0.392567L73.803 0.339867L73.9439 0.445267L74.1019 0.374965H74.2429L74.3828 0.392567L74.5407 0.445267L74.6817 0.322266L74.8396 0.427665H74.9806L75.1205 0.339867L75.2795 0.357364L75.4194 0.339867H75.5773L75.7183 0.357364L75.8763 0.392567L76.0172 0.427665L76.1752 0.410169L76.3151 0.339867L76.4561 0.357364L76.614 0.427665L76.755 0.392567L76.9129 0.357364L77.0528 0.392567H77.2118L77.3517 0.374965L77.5097 0.445267H77.6506L77.7905 0.339867L77.9495 0.410169L78.0894 0.322266L78.2474 0.374965H78.3884L78.5463 0.339867H78.6873L78.8452 0.427665L78.9851 0.339867L79.1441 0.392567L79.284 0.427665L79.442 0.410169H79.5829Z" fill="white" fill-opacity="0.32"/>
<path d="M82.9726 1.02515L82.9906 0.884656L83.0606 0.761548L83.1136 0.621051L83.2545 0.585848L83.3415 0.445243L83.4824 0.410145L83.6234 0.339844H83.7633H83.9213L84.0622 0.392543L84.2202 0.374942L84.3611 0.427747L84.5191 0.445243L84.677 0.392543L84.818 0.410145L84.9759 0.339844L85.1158 0.410145L85.2748 0.374942L85.4147 0.445243H85.5727L85.7136 0.427747L85.8716 0.374942H86.0125H86.1705L86.3284 0.410145L86.4683 0.392543L86.6273 0.427747L86.7672 0.410145L86.9252 0.392543L87.0842 0.339844L87.2241 0.374942L87.382 0.357445L87.488 0.480448L87.6459 0.497943L87.7159 0.638547L87.8039 0.744054V0.902153L87.8569 1.02515L87.8389 1.16576L87.8219 1.32396L87.8738 1.46457L87.8039 1.62267L87.8219 1.76327L87.8039 1.92148L87.8919 2.06197L87.9268 2.22018L87.8389 2.36078L87.8919 2.50139L87.8389 2.65949L87.8738 2.80009L87.8569 2.9583L87.8738 3.09879L87.8039 3.257L87.9088 3.3976L87.9268 3.5557L87.8738 3.69631L87.9088 3.85451L87.8039 3.99512L87.8919 4.13572L87.8389 4.29382L87.8569 4.43442L87.8389 4.59252V4.73313V4.89133V5.03194L87.8219 5.19004L87.8919 5.33064V5.48885L87.8569 5.62945L87.8389 5.78755L87.8219 5.92815L87.8738 6.06876L87.8219 6.22686L87.8389 6.36746V6.52567L87.9088 6.66627L87.8389 6.82437L87.9088 6.96497L87.8919 7.12318V7.26368L87.8569 7.42188L87.8389 7.56249L87.8919 7.72059V7.86119V8.0194L87.9088 8.16V8.3181L87.8389 8.4587V8.59931L87.8919 8.75741L87.8569 8.89801L87.8039 9.05622L87.8738 9.19682L87.8039 9.35492L87.8389 9.49552L87.9268 9.65373L87.8919 9.79423V9.95243L87.9088 10.093L87.8919 10.2511L87.8569 10.3917L87.8219 10.5323L87.9268 10.6905L87.8569 10.8312L87.8219 10.9893V11.1299L87.8569 11.2881V11.4286L87.8738 11.5868L87.8569 11.7274L87.8219 11.8855L87.8389 12.0261L87.8919 12.1843L87.8569 12.3249L87.8039 12.4654L87.8738 12.6236V12.7642L87.8919 12.9223L87.8039 13.0629L87.8919 13.2211L87.9088 13.3617L87.8738 13.5198L87.8919 13.6604L87.8039 13.8186L87.8569 13.9591L87.8219 14.1173V14.2579L87.8738 14.416L87.8219 14.5566L87.9088 14.7148L87.8219 14.8554L87.9268 15.0135V15.1541L87.9088 15.3123L87.9268 15.4528L87.8569 15.611V15.7516L87.9088 15.9097L87.8738 16.0504L87.8389 16.2086L87.8919 16.3492L87.8039 16.5073L87.9268 16.6479L87.8919 16.8061V16.9466V17.1048L87.8039 17.263L87.9088 17.4035L87.8389 17.5617L87.8569 17.7023L87.8919 17.8429L87.9798 17.9659L88.1197 18.0362L88.2257 18.1065L88.3656 18.124L88.4886 18.1416L88.6476 18.1592H88.7875L88.9285 18.124L89.0684 18.1943L89.2263 18.2119L89.3673 18.2295L89.5083 18.2119L89.6662 18.247L89.8061 18.1592L89.9471 18.2295L90.105 18.247L90.246 18.1592L90.3859 18.1943L90.5269 18.1592H90.6848L90.8258 18.1416L90.9657 18.1592H91.1237L91.2646 18.1416L91.4045 18.2295H91.5635L91.7034 18.2119L91.8444 18.2295H92.0024L92.0723 18.3701L92.2133 18.4228L92.2832 18.5458L92.3892 18.6688L92.3532 18.827L92.3362 18.9675L92.3532 19.1081L92.3182 19.2663V19.4069V19.565L92.3362 19.7056L92.3013 19.8462L92.3892 20.0043V20.1449L92.2832 20.3031L92.3182 20.4437L92.2832 20.5843L92.4062 20.7424L92.3712 20.8831L92.3013 21.0413L92.3362 21.1818L92.4062 21.3224V21.4806L92.3892 21.6212L92.3712 21.7793L92.3013 21.9023V22.0605L92.2302 22.2011L92.1073 22.2714L91.9843 22.3592L91.8444 22.3944L91.7034 22.3592L91.5635 22.3944L91.4045 22.4471H91.2646L91.1067 22.3944L90.9657 22.4119H90.8078H90.6668L90.5089 22.4471L90.369 22.4647L90.211 22.4119L90.0701 22.4647L89.9121 22.3768L89.7711 22.3416L89.6132 22.3592H89.4722L89.3143 22.3944L89.1744 22.4471L89.0165 22.4647L88.8755 22.3592L88.7175 22.3416H88.5766L88.4186 22.3944L88.2777 22.4119L88.1197 22.4647H87.9798L87.8219 22.3768L87.6809 22.3944L87.523 22.3592H87.382L87.2241 22.3768L87.0842 22.4471L86.9252 22.3416L86.7672 22.3944L86.6273 22.4119L86.4683 22.4295L86.3284 22.4119L86.1705 22.3944L86.0295 22.3592L85.8716 22.4295L85.7306 22.3416L85.5727 22.3944L85.4327 22.3768L85.2748 22.4119L85.1158 22.3944H84.9759H84.818L84.677 22.4119L84.5191 22.4471L84.3781 22.3592L84.2202 22.4295L84.0802 22.3768L83.9213 22.3592H83.7633L83.6234 22.4119L83.4644 22.4471L83.3245 22.3768L83.2015 22.3065L83.1666 22.1308L82.9906 22.0781L83.0086 21.9199L82.9906 21.7793L83.0256 21.6212V21.4806L82.9726 21.3224L83.0436 21.1818L82.9726 21.0237L83.0436 20.8831V20.7424L82.9726 20.5843L83.0256 20.4437L82.9556 20.2855V20.1449L83.0256 19.9868L82.9207 19.8462L82.9376 19.688L83.0436 19.5474L83.0256 19.3893L82.9726 19.2487V19.0906L83.0256 18.95L82.9906 18.8094L83.0436 18.6512L82.9906 18.5106L82.9376 18.3525L83.0436 18.2119L82.9376 18.0537V17.9132L83.0436 17.755L82.9906 17.6144L82.9376 17.4563V17.3157L83.0436 17.1575L82.9556 17.0169V16.8588L83.0436 16.7182L82.9556 16.56L82.9906 16.4195L83.0256 16.2613L82.9207 16.1207L83.0256 15.9626L82.9376 15.822L82.9906 15.6637L83.0256 15.5231L82.9556 15.3826L82.9376 15.2244L83.0436 15.0838L82.9906 14.9257L83.0436 14.7851L82.9726 14.6269L83.0436 14.4863L82.9556 14.3282L83.0436 14.1876L82.9376 14.0294L82.9906 13.8889L82.9376 13.7307L83.0256 13.5901L82.9556 13.432L82.9726 13.2914L82.9376 13.1332L82.9726 12.9926L83.0086 12.8345L82.9556 12.6939L82.9906 12.5357L83.0086 12.3951L82.9207 12.237L83.0256 12.0964L82.9726 11.9383L82.9376 11.7977L82.9556 11.6395L82.9906 11.4989L82.9376 11.3408L82.9906 11.2002L82.9556 11.042V10.9013L83.0086 10.7433L82.9556 10.6026L82.9726 10.4444L82.9906 10.3039L83.0256 10.1457L82.9556 10.0051L82.9726 9.84703L82.9556 9.70643L83.0256 9.54822V9.40762L82.9556 9.24952L83.0086 9.10892L82.9906 8.95071L83.0086 8.81021V8.65201L82.9726 8.5114L83.0256 8.3533L83.0436 8.2127L83.0086 8.0721L83.0256 7.91389L82.9726 7.77339L82.9207 7.61519L83.0086 7.47458L82.9726 7.31648L82.9556 7.17588L82.9207 7.01767L83.0256 6.87707L83.0086 6.71897L82.9376 6.57837L83.0436 6.42016L82.9726 6.27966L83.0086 6.12146L82.9726 5.98085L82.9906 5.82275L82.9207 5.68215L83.0086 5.52394L82.9376 5.38334L83.0256 5.22524L82.9906 5.08464L82.9556 4.92643L82.9376 4.78593L83.0436 4.62773L82.9556 4.46952L82.9726 4.32903L82.9906 4.17082V4.03021V3.87212L82.9376 3.73151L82.9726 3.57331L82.9906 3.4327L82.9726 3.2746L82.9207 3.134L82.9906 2.97579L83.0436 2.83529L82.9556 2.67709L82.9376 2.53649V2.37839L83.0086 2.23778L83.0256 2.07958L82.9556 1.92148V1.78087V1.62267V1.48206L83.0256 1.32396L82.9556 1.18336L82.9726 1.02515Z" fill="white" fill-opacity="0.32"/>
<path d="M94.5324 1.16578L94.6374 1.04278L94.6554 0.902281L94.7073 0.779172L94.7953 0.638675L94.9182 0.568374H95.0762L95.2171 0.480469L95.3571 0.498072H95.5161L95.656 0.58587L95.8139 0.515567L95.9549 0.498072L96.1128 0.515567L96.2538 0.533168L96.4117 0.480469L96.5516 0.533168L96.6926 0.480469L96.8505 0.533168L96.9915 0.58587L97.1494 0.515567L97.3074 0.58587H97.4484L97.6063 0.480469L97.7462 0.515567L97.9052 0.533168L98.0451 0.515567L98.203 0.568374L98.344 0.515567L98.502 0.550772L98.6429 0.480469L98.8009 0.58587L98.9408 0.533168L99.0998 0.58587L99.2397 0.550772L99.3976 0.58587H99.5386L99.6965 0.568374L99.8375 0.515567L99.9954 0.603472L100.153 0.480469L100.293 0.550772H100.452L100.592 0.480469L100.75 0.550772L100.891 0.498072L101.049 0.550772L101.19 0.568374L101.348 0.550772H101.488L101.647 0.498072L101.787 0.533168L101.945 0.480469L102.103 0.533168L102.244 0.515567L102.402 0.480469L102.543 0.533168L102.7 0.603472L102.841 0.533168L102.999 0.515567L103.157 0.533168H103.297L103.438 0.568374L103.579 0.603472L103.649 0.726473L103.807 0.761678L103.86 0.902281L103.983 1.02528V1.16578V1.32399L103.93 1.46459L103.948 1.62269L103.895 1.76329L103.877 1.9215L103.93 2.0621L103.913 2.2202L103.983 2.36081L103.913 2.51901L103.948 2.65962L103.877 2.81772V2.95832L103.895 3.11642L103.948 3.25702V3.41523V3.57333L103.913 3.71393L103.93 3.87214L103.895 4.01274L103.913 4.17084L103.93 4.31144L103.983 4.46965L103.895 4.59265L103.825 4.75075L103.666 4.78596L103.596 4.90896L103.438 4.92656L103.297 4.96166L103.157 4.90896L103.016 4.94406L102.858 4.92656L102.718 4.90896L102.577 4.96166L102.42 4.89136L102.279 4.92656L102.139 4.89136L101.98 4.97926L101.84 5.01436L101.699 4.92656L101.559 4.97926L101.401 4.92656L101.26 4.96166H101.119H100.961L100.821 4.89136L100.68 5.01436H100.522L100.381 4.96166L100.241 4.99686L100.083 4.89136L99.9605 4.99686H99.8015L99.6785 5.08466L99.5736 5.17256L99.4856 5.29556L99.4506 5.43617L99.4326 5.57677L99.4156 5.73487L99.4856 5.89308V6.03368L99.4506 6.19178L99.4326 6.34999L99.4156 6.49059L99.4686 6.64869L99.4156 6.8069L99.4326 6.965V7.1056L99.5036 7.26381L99.4326 7.42191L99.5036 7.56251L99.4856 7.72071V7.87882L99.4506 8.03702L99.4326 8.17762L99.5036 8.31812L99.5556 8.44123L99.6086 8.56423L99.7145 8.65203L99.8375 8.72233L99.9424 8.82784H100.083L100.223 8.79263L100.381 8.82784L100.522 8.88054L100.663 8.79263L100.803 8.88054L100.944 8.84534L101.102 8.75753L101.242 8.79263H101.383L101.524 8.77503L101.682 8.79263L101.822 8.82784L101.945 8.91564H102.103L102.174 9.05624L102.227 9.19684L102.244 9.31984L102.314 9.44285V9.60105L102.332 9.74166L102.297 9.89976L102.279 10.0404L102.297 10.1986L102.35 10.3391L102.314 10.4973L102.262 10.6379L102.314 10.796V10.9366L102.332 11.0948L102.262 11.2354L102.332 11.3935L102.367 11.5341L102.332 11.6923V11.8328L102.262 11.991L102.314 12.1316L102.262 12.2897V12.4303L102.314 12.5885L102.279 12.7466L102.35 12.8872L102.209 12.9927L102.227 13.1684L102.103 13.2738L101.98 13.3617L101.822 13.4144L101.682 13.3617L101.524 13.3793L101.383 13.4144L101.242 13.3968L101.102 13.3441L100.961 13.3968L100.803 13.3265L100.663 13.432L100.522 13.3968L100.381 13.4144L100.223 13.3968L100.083 13.309L99.9605 13.432L99.8015 13.4144L99.6785 13.4847L99.5736 13.5901L99.4856 13.7131L99.5036 13.8713L99.4686 14.0119L99.5036 14.1525V14.2931L99.4856 14.4512V14.5919L99.5206 14.7501L99.4506 14.8906L99.4326 15.0312L99.4156 15.1894L99.4326 15.33L99.3976 15.4881L99.4856 15.6287L99.3976 15.7693V15.9274L99.4856 16.068L99.4506 16.2262L99.4856 16.3668V16.5074L99.5036 16.6655L99.4856 16.8061V16.9642L99.5036 17.1048L99.4156 17.263V17.4036L99.4326 17.5617V17.7023L99.5036 17.8429L99.4686 18.0011L99.6086 18.0889L99.6965 18.1944L99.8375 18.2119L99.9424 18.2998L100.083 18.3349L100.241 18.3174L100.381 18.3525H100.522H100.663H100.821L100.961 18.3701L101.102 18.2998L101.26 18.2822L101.401 18.3877L101.541 18.3525L101.699 18.3877L101.84 18.2822L101.98 18.2998L102.121 18.3701L102.279 18.3349L102.42 18.2646L102.559 18.2822H102.718L102.858 18.2998L102.999 18.3701L103.157 18.3174L103.297 18.2998L103.438 18.3525L103.579 18.3877L103.702 18.4755L103.754 18.5985L103.86 18.704L103.965 18.827L103.983 18.9676L103.913 19.1082L103.948 19.2663L103.93 19.4069L103.948 19.5652L103.965 19.7057L104 19.8463L103.93 20.0045L103.983 20.1451L103.913 20.2856L103.877 20.4438V20.5844V20.7425L103.93 20.8831L103.983 21.0237V21.1819L103.895 21.3224L103.877 21.4806V21.6212L103.913 21.7793L103.948 21.9199L103.965 22.0781L103.913 22.2187L103.772 22.289L103.684 22.3944L103.561 22.4471L103.438 22.4998L103.297 22.5174L103.157 22.5877L102.999 22.4823L102.858 22.535L102.7 22.5701H102.559L102.402 22.5526L102.262 22.535L102.103 22.4998L101.963 22.5701L101.805 22.4998L101.664 22.5526L101.506 22.5174L101.365 22.5526H101.207L101.067 22.535L100.909 22.5526H100.768L100.61 22.6053L100.469 22.4998L100.311 22.5701L100.17 22.5174L100.012 22.4998H99.8725L99.7145 22.5526L99.5736 22.6053L99.4156 22.5877H99.2747L99.1167 22.4998L98.9768 22.6053L98.8178 22.535L98.6779 22.5526L98.52 22.5174H98.361L98.2211 22.5526L98.0631 22.4998L97.9222 22.5701L97.7642 22.4998H97.6233L97.4653 22.5526L97.3254 22.4998L97.1664 22.5877H97.0265L96.8686 22.5174L96.7106 22.6053H96.5697L96.4117 22.4998L96.2707 22.5174L96.1128 22.5701H95.9729L95.8139 22.5174L95.674 22.5526L95.5161 22.4998L95.3571 22.5526L95.2171 22.6053L95.0762 22.4823L94.9182 22.535L94.7953 22.4471L94.7603 22.2714L94.6554 22.2011L94.5494 22.0781L94.5324 21.9199L94.6374 21.7793L94.5494 21.6212V21.4806L94.6374 21.3224L94.5494 21.1819L94.5844 21.0237L94.6193 20.8831L94.5144 20.725L94.6193 20.5844L94.5324 20.4438L94.5844 20.2856L94.6193 20.1451L94.5494 19.9869L94.5324 19.8463L94.6374 19.6882L94.5844 19.5475L94.6374 19.3893L94.5674 19.2487L94.6374 19.0906L94.5494 18.95L94.6374 18.7918L94.5324 18.6513L94.5844 18.4931L94.5324 18.3525L94.6193 18.1944L94.5494 18.0538L94.5674 17.8956L94.5324 17.755L94.5674 17.5969L94.6024 17.4563L94.5494 17.3157L94.5844 17.1576L94.6024 17.017L94.5144 16.8588L94.6193 16.7182L94.5674 16.5601L94.5324 16.4195L94.5494 16.2613L94.5844 16.1207L94.5324 15.9626L94.5844 15.822L94.5494 15.6638V15.5233L94.6024 15.3651L94.5494 15.2245L94.5674 15.0664L94.5844 14.9258L94.6193 14.7676L94.5494 14.6269L94.5674 14.4688L94.5494 14.3282L94.6193 14.17V14.0295L94.5494 13.8713L94.6024 13.7307L94.5844 13.5726L94.6024 13.432V13.2738L94.5674 13.1332L94.6193 12.9927L94.6374 12.8345L94.6024 12.6939L94.6193 12.5358L94.5674 12.3952L94.5144 12.237L94.6024 12.0964L94.5674 11.9383L94.5494 11.7977L94.5144 11.6395L94.6193 11.499L94.6024 11.3408L94.5324 11.2002L94.6374 11.0421L94.5674 10.9015L94.6024 10.7433L94.5674 10.6027L94.5844 10.4446L94.5144 10.304L94.6024 10.1458L94.5324 10.0053L94.6193 9.84706L94.5844 9.70645L94.5494 9.54835L94.5324 9.40775L94.6374 9.24954L94.5494 9.10894L94.5674 8.95084L94.5844 8.81024V8.65203V8.51153L94.5324 8.35333L94.5674 8.21272L94.5844 8.05462L94.5674 7.91402L94.5144 7.75581L94.5844 7.61521L94.6374 7.47461L94.5494 7.31651L94.5324 7.1583V7.0177L94.6024 6.8596L94.6193 6.71899L94.5494 6.56089V6.42029V6.26208V6.12148L94.6193 5.96338L94.5494 5.82278V5.66457L94.5324 5.52397L94.5144 5.36587L94.5674 5.22526L94.5324 5.06706V4.92656L94.5494 4.76835L94.5674 4.62775L94.5844 4.46965L94.6374 4.32905L94.6024 4.17084L94.6193 4.03024L94.6374 3.87214V3.73153L94.5674 3.57333L94.5844 3.43283V3.27463L94.5494 3.13402L94.6374 2.97592L94.5674 2.83532L94.5844 2.67711L94.6374 2.51901L94.5844 2.37841L94.6193 2.2202L94.6374 2.0796L94.5494 1.9215V1.78089L94.5324 1.62269V1.48219L94.6024 1.32399L94.5324 1.16578Z" fill="white" fill-opacity="0.32"/>
<path d="M49.7195 1.02518L49.6665 0.884575L49.5965 0.779173V0.603473L49.4386 0.56827L49.3506 0.427665L49.2097 0.410169L49.0697 0.374965L48.9107 0.462868L48.7708 0.374965L48.6129 0.427665L48.4719 0.445267H48.314L48.1561 0.427665L48.0151 0.339867H47.8571H47.7162H47.5582L47.4183 0.410169L47.2604 0.392567L47.1194 0.357364L46.9615 0.392567L46.8035 0.410169L46.6626 0.374965L46.5046 0.357364L46.3637 0.339867L46.2057 0.392567L46.0658 0.322266L45.9068 0.410169L45.7489 0.462868L45.609 0.427665L45.45 0.445267L45.3101 0.392567L45.1871 0.480365L45.0642 0.533172L44.9412 0.620969L44.9062 0.761572L44.8352 0.884575L44.8182 1.02518L44.8352 1.16578L44.8002 1.32388L44.8352 1.46449L44.7653 1.62269L44.8182 1.76329L44.8882 1.92139L44.8532 2.062L44.7833 2.2026L44.8002 2.36081L44.8182 2.50131L44.7833 2.65951L44.8352 2.80011L44.7833 2.95821L44.7653 3.09882L44.8352 3.25702L44.8002 3.39763L44.8182 3.53812V3.69633L44.8002 3.83694L44.8182 3.99503L44.7653 4.13564L44.7833 4.29384L44.7653 4.43445L44.8182 4.59255L44.8532 4.73315V4.89136L44.8002 5.03186L44.8712 5.19006L44.8532 5.33066L44.8002 5.47127L44.8352 5.62937L44.8182 5.76997L44.8532 5.92818L44.7653 6.06878L44.8002 6.22688L44.8712 6.36748V6.52558L44.8182 6.66619L44.8712 6.82439L44.7653 6.965L44.8352 7.1231L44.7833 7.2637L44.8002 7.4043L44.8712 7.56251L44.7833 7.70301L44.8002 7.86122L44.8182 8.00182L44.8532 8.15992V8.30052L44.8182 8.45872L44.8882 8.59933L44.8712 8.75743V8.89804L44.7653 9.05624L44.8352 9.19674L44.8712 9.33734L44.8352 9.49555V9.63615L44.8712 9.79425L44.8352 9.93485L44.8712 10.0931L44.8182 10.2336L44.7833 10.3742L44.8352 10.5324L44.7833 10.673V10.8311L44.8712 10.9717L44.8352 11.1299L44.8182 11.2704L44.8532 11.4286L44.7833 11.5692L44.8352 11.7273L44.8002 11.8679L44.8712 12.0085L44.7833 12.1667L44.8182 12.3073L44.7653 12.4654L44.8002 12.606L44.7653 12.7642V12.9047L44.7833 13.0629L44.8352 13.2035L44.7653 13.3616L44.8882 13.5022L44.8182 13.6604L44.8002 13.801L44.8712 13.9591L44.8182 14.0997L44.8712 14.2579L44.8182 14.3984L44.7833 14.5566L44.8002 14.6972V14.8553L44.8532 14.996L44.8352 15.1542L44.8712 15.2948L44.8352 15.4529L44.8532 15.5935L44.8712 15.7517L44.8352 15.8922L44.7653 16.0504L44.8352 16.191V16.3491V16.4897V16.6479L44.8002 16.7885L44.8352 16.9466L44.7653 17.0872L44.8182 17.2454L44.7833 17.3859V17.5441L44.7123 17.6671L44.6423 17.8077L44.5193 17.8956L44.4314 18.0186L44.2915 18.0713L44.1505 18.1064L44.0106 18.1767L43.8516 18.1943L43.7117 18.2646L43.5537 18.2119L43.3947 18.2646L43.2368 18.1943H43.0789L42.9209 18.2119L42.763 18.2646H42.6051H42.4641L42.3062 18.2119L42.1482 18.2294L42.0072 18.1767H41.8493H41.6914L41.5334 18.2119L41.3925 18.1416L41.2345 18.124L41.1466 17.9834L41.0416 17.878L41.0236 17.7023L40.9537 17.5617L40.9706 17.4035L40.9007 17.2629V17.1048V16.9466L40.8477 16.7885L40.9187 16.6479L40.8837 16.5073L40.9187 16.3491L40.8307 16.2086L40.7957 16.0504L40.8657 15.9098L40.8307 15.7517L40.8837 15.6111L40.8307 15.4705L40.8477 15.3123V15.1717L40.9007 15.0136L40.7957 14.873V14.7149L40.8477 14.5742L40.8127 14.416L40.9007 14.2754L40.8307 14.1173L40.8837 13.9767L40.8657 13.8361L40.8837 13.6779V13.5374V13.3792V13.2386V13.0805L40.8307 12.9399V12.7817L40.8657 12.6411L40.8837 12.483L40.9007 12.3424L40.8307 12.2018L40.9007 12.0437L40.8657 11.9031L40.8837 11.7449L40.7957 11.6043L40.8837 11.4462L40.8127 11.3056L40.8307 11.1474V11.0069L40.8477 10.8487L40.8837 10.7081L40.8127 10.55V10.4094L40.8307 10.2688L40.8127 10.1106V9.97006L40.8837 9.81185L40.8657 9.67125L40.8307 9.51315L40.8657 9.37255L40.9187 9.21434L40.8307 9.07374L40.9187 8.91564L40.8837 8.77503L40.7957 8.63443L40.8307 8.47622V8.33573L40.8127 8.17752L40.8307 8.03692L40.8477 7.87882L40.8837 7.73821L40.7957 7.59761L40.8477 7.4394L40.8837 7.29891L40.9007 7.1407L40.8477 7.00009V6.842L40.8307 6.70139L40.8657 6.54319L40.8837 6.40258L40.8657 6.24448L40.8127 6.10388L40.8657 5.94567L40.9007 5.80518L40.8477 5.66457V5.50637L40.8307 5.36576L40.9007 5.20766L40.8307 5.06706L40.7957 4.90885L40.8307 4.76835V4.61015L40.9187 4.46955L40.8477 4.31145L40.9007 4.17084V4.01264L40.8477 3.87203L40.8837 3.71393L40.8127 3.57333L40.8837 3.41512L40.7957 3.27452V3.11642V2.97582V2.81772L40.8657 2.67711L40.8477 2.51891L40.8127 2.3783L40.8307 2.2202L40.8837 2.0796L40.8307 1.92139L40.9007 1.78079L40.7957 1.62269L40.8307 1.48209L40.8127 1.32388L40.8307 1.18338L40.9007 1.02518L40.7957 0.902176L40.8127 0.74397L40.7427 0.620969L40.6367 0.515568L40.5138 0.427665L40.3558 0.445267L40.2159 0.410169L40.0749 0.445267H39.917L39.776 0.427665H39.6181L39.4782 0.445267L39.3203 0.392567L39.1793 0.374965L39.0211 0.357364L38.863 0.374965L38.7224 0.339867L38.5644 0.427665L38.4239 0.339867H38.2657L38.1253 0.427665L37.9671 0.392567L37.8266 0.427665H37.6685L37.5104 0.445267L37.3698 0.427665L37.2118 0.410169L37.0712 0.445267L36.9131 0.357364H36.7725L36.6145 0.374965H36.474L36.351 0.480365L36.1929 0.497966L36.1226 0.638571L36.0523 0.761572V0.902176L35.9996 1.02518L35.9821 1.18338L35.9996 1.32388L35.9469 1.48209L35.9645 1.64029V1.78079V1.939L35.9469 2.0972L36.0172 2.2377L36.0348 2.3959L35.9119 2.53651L35.9645 2.67711L35.9294 2.81772L36.0348 2.95821L36.0172 3.09882L35.9469 3.23942L35.9821 3.38003L36.0348 3.52063V3.66123V3.80173L36.0172 3.95994L35.9469 4.10054L35.9996 4.25864L36.0172 4.39924L35.9821 4.55745V4.69805V4.85615L35.9294 4.99676L35.9821 5.13736L36.0172 5.29546V5.43606L35.9645 5.59427L35.9996 5.73487L35.9821 5.89297L35.9996 6.03358L36.0172 6.19178L36.0348 6.33228L35.9821 6.49049L36.0348 6.63109L35.9469 6.78919L35.9294 6.92979V7.0704V7.2286L35.9645 7.36921L36.0172 7.52731L36.0348 7.66791L35.9469 7.82601L35.9294 7.96661L35.9119 8.10722L35.9645 8.26543L35.9821 8.40603L36.0348 8.56413V8.70473L35.9469 8.86294L35.9645 9.00344L35.9469 9.16164V9.30224V9.44285L36.0172 9.60095L35.9119 9.74155L35.9645 9.89976L35.9821 10.0403L35.9996 10.1985L35.9821 10.3391L35.9645 10.4972L35.9294 10.6378L35.9996 10.796L35.9294 10.9366L35.9821 11.0947L35.9469 11.2353L35.9821 11.3935L35.9645 11.534V11.6922V11.8328L35.9821 11.9909L36.0172 12.1315L35.9294 12.2897L35.9996 12.4303L35.9469 12.5884L35.9294 12.729V12.8872L35.9821 13.0277L36.0348 13.1859L36.0172 13.3265V13.4846L35.9294 13.6252L36.0348 13.7834L35.9645 13.924L35.9821 14.0821L35.9294 14.2227L35.9469 14.3809L35.9821 14.5214L35.9294 14.6796L35.9996 14.8203L35.9294 14.9784V15.119L35.9821 15.2772L35.9294 15.4178L36.0172 15.5759V15.7165L35.9469 15.8747L36.0348 16.0153V16.1734L35.9294 16.314V16.4722L35.9996 16.6127V16.7709L35.9469 16.9115L35.9821 17.0696L35.9294 17.2102L35.9645 17.3508L36.0348 17.509L35.9294 17.6495L36.0348 17.8077L36.0172 17.9483L35.9294 18.1064L35.9821 18.247L36.0348 18.4052V18.5633L35.9294 18.7215L36.0172 18.8621L36.0348 19.0027L35.9821 19.1784L36.1051 19.3014L36.1226 19.4596V19.6177L36.2631 19.7231L36.2281 19.899L36.3686 20.0044L36.3861 20.1626L36.4037 20.3032L36.5442 20.4086L36.6145 20.5492V20.7249L36.7375 20.8303L36.7725 20.9885L36.9131 21.0764L36.9483 21.2345L37.1063 21.2872L37.159 21.463L37.3347 21.4981L37.405 21.6387L37.5456 21.6914L37.6157 21.8672L37.7915 21.8847L37.8968 21.9726L38.055 22.0077L38.1779 22.1132L38.3009 22.1835H38.4589L38.5995 22.2538L38.7576 22.2889L38.8982 22.2362L39.0562 22.3241L39.1973 22.2713L39.3552 22.2362L39.4952 22.2713L39.6531 22.2889L39.7941 22.2362L39.952 22.3065L40.093 22.2538H40.2329L40.3908 22.3065L40.5318 22.2713L40.6897 22.2889H40.8307L40.9886 22.3241L41.1296 22.2538L41.2695 22.2713L41.4275 22.2538L41.5684 22.3241L41.7264 22.3416L41.8673 22.2713L42.0253 22.3065H42.1652H42.3231H42.4641L42.622 22.2713L42.763 22.3416H42.9209L43.0619 22.3241H43.2198L43.3597 22.2889L43.5177 22.2362L43.6587 22.3065L43.8166 22.2713L43.9576 22.2538L44.1155 22.2362L44.2565 22.3241L44.4144 22.3065L44.5543 22.2538L44.7123 22.3416L44.8532 22.2889L45.0112 22.3241L45.1521 22.2713L45.3101 22.3065L45.45 22.2362L45.609 22.3065L45.7489 22.2538L45.9068 22.3241L46.0478 22.2889L46.2057 22.2538L46.3467 22.2362L46.5046 22.3416L46.6446 22.2538L46.7855 22.2362L46.9265 22.2186L47.0844 22.1835L47.2244 22.1483L47.3473 22.0429L47.4883 22.0253L47.6293 21.9726L47.7522 21.8847L47.8391 21.7617L47.9981 21.7266L48.1561 21.6738L48.208 21.5157L48.314 21.4103L48.402 21.2872L48.5599 21.2345L48.6829 21.1467L48.7178 20.9885L48.8058 20.8655L48.8938 20.7425L48.9818 20.6195L49.1047 20.5316L49.1217 20.3734L49.1927 20.2329L49.2446 20.0923L49.2976 19.9693L49.4026 19.8463L49.4386 19.7056L49.4736 19.565L49.5435 19.4244L49.6135 19.3014L49.6485 19.1608L49.7545 19.0202V18.8621L49.7714 18.7215L49.7894 18.5633V18.4227L49.7195 18.2646L49.7545 18.124V17.9834L49.7015 17.8253L49.7894 17.6847L49.7364 17.5265V17.3859L49.7894 17.2278L49.7545 17.0872L49.7714 16.929L49.7894 16.7885L49.7015 16.6479V16.4897L49.6845 16.3491V16.191L49.7545 16.0504V15.9098V15.7517L49.7195 15.6111L49.6845 15.4529L49.7894 15.3123L49.7195 15.1717L49.7015 15.0136V14.873L49.7545 14.7149L49.7714 14.5742L49.7545 14.416V14.2754L49.7015 14.1173L49.7364 13.9767L49.7894 13.8361L49.7015 13.6779L49.7364 13.5374L49.7714 13.3792L49.6845 13.2386L49.7894 13.0805L49.6845 12.9399L49.7195 12.7993L49.7364 12.6411L49.7714 12.5006L49.6845 12.3424L49.7195 12.2018V12.0437L49.6665 11.9031V11.7449L49.7195 11.6043L49.7714 11.4638L49.7195 11.3056L49.7015 11.165V11.0069V10.8663L49.7195 10.7081L49.7015 10.5675L49.7364 10.4094L49.7195 10.2688L49.6845 10.1106L49.7195 9.97006L49.6665 9.81185L49.7714 9.67125L49.7015 9.51315V9.37255L49.7195 9.21434L49.7714 9.07374L49.6485 8.91564L49.7545 8.77503V8.61683L49.6665 8.47622L49.6845 8.31812L49.6485 8.17752L49.6665 8.01942L49.6845 7.87882L49.7195 7.72061L49.7545 7.58001L49.7364 7.42191L49.6665 7.2813V7.1231L49.7545 6.98249L49.7195 6.82439L49.6665 6.68379L49.7195 6.52558V6.38509L49.7015 6.22688L49.7545 6.08628L49.7714 5.92818L49.6665 5.78757L49.7195 5.62937L49.6485 5.48876L49.6845 5.33066V5.19006L49.6665 5.03186V4.89136L49.7545 4.73315L49.6665 4.59255L49.7195 4.45194L49.7545 4.29384L49.7195 4.15324L49.6485 3.99503L49.7195 3.85454L49.7364 3.69633L49.6485 3.55573L49.7364 3.39763L49.6485 3.25702V3.09882V2.95821L49.7195 2.80011L49.6845 2.65951V2.50131L49.7545 2.36081L49.7015 2.2202L49.6485 2.062V1.92139V1.76329L49.7545 1.62269L49.6845 1.46449L49.6665 1.32388L49.7545 1.16578L49.7195 1.02518Z" fill="white" fill-opacity="0.32"/>
<path d="M1.30578 12.5701L1.20043 12.6932L1.18283 12.8163L1.2706 12.9393L1.23551 13.0623L1.28819 13.1853L1.21792 13.3083V13.4138L1.28819 13.5368L1.30578 13.6598L1.20043 13.7652L1.11256 13.8179L0.972007 13.7652L0.849051 13.8179L0.726095 13.8531L0.65582 13.9761L0.585546 14.0815L0.532864 14.1694L0.409912 14.2924L0.532864 14.3978L0.550461 14.5033L0.567949 14.6263L0.65582 14.7317L0.796369 14.7142L0.919325 14.7317L1.02468 14.7844L1.13015 14.8196L1.20043 14.8723V14.9953L1.21792 15.1183L1.20043 15.2413L1.23551 15.3644L1.20043 15.4874L1.21792 15.6104L1.20043 15.751L1.18283 15.874L1.23551 15.997L1.2531 16.12L1.20043 16.2606L1.23551 16.3836L1.28819 16.5066L1.20043 16.6296L1.28819 16.7526L1.2706 16.8932L1.21792 17.0162L1.18283 17.1392L1.23551 17.2622L1.2706 17.3852L1.20043 17.5258L1.23551 17.6488L1.20043 17.7718L1.28819 17.895L1.21792 18.018L1.23551 18.1586L1.30578 18.2816L1.23551 18.4046L1.18283 18.5276L1.30578 18.6682L1.2706 18.7912L1.21792 18.9142L1.18283 19.0372V19.1602L1.23551 19.3008L1.2531 19.4238L1.21792 19.5468L1.30578 19.6698L1.21792 19.8104V19.9334L1.28819 20.0564V20.1794L1.20043 20.32L1.21792 20.443L1.28819 20.5661L1.21792 20.6891V20.8296L1.28819 20.9527L1.32338 21.0581L1.34087 21.1811L1.39365 21.2865L1.44634 21.4096L1.51661 21.4974L1.58689 21.6029L1.56929 21.761L1.70984 21.8137L1.79761 21.9016L1.90307 21.9719L1.95575 22.0949L2.06111 22.1652L2.18407 22.1828L2.27194 22.3058H2.41249L2.53544 22.2531L2.65839 22.3409H2.79895L2.9219 22.2179H3.04485L3.15032 22.1476L3.32596 22.1828L3.36104 22.0246L3.48399 21.9543L3.51919 21.8137L3.53678 21.6907L3.41372 21.5853L3.43131 21.4271L3.30836 21.3744L3.16781 21.392L3.06245 21.3217L2.95698 21.2338L2.83403 21.2163L2.69359 21.2338L2.58812 21.1635L2.48276 21.0932L2.44757 20.9702L2.34221 20.8824L2.28953 20.7594L2.27194 20.6363L2.30702 20.5133L2.37729 20.3903L2.39489 20.2497L2.37729 20.1267L2.27194 20.0037L2.28953 19.8807L2.37729 19.7577L2.32462 19.6171L2.34221 19.4941V19.3711L2.32462 19.2481L2.39489 19.1075L2.37729 18.9845L2.34221 18.8615L2.28953 18.7385L2.27194 18.6155L2.32462 18.4749L2.3598 18.3519L2.30702 18.2288L2.34221 18.1058L2.28953 17.9653L2.37729 17.8421L2.34221 17.7191L2.32462 17.5961L2.34221 17.4555L2.28953 17.3325L2.30702 17.2095L2.32462 17.0689L2.37729 16.9459L2.28953 16.8229L2.39489 16.6999V16.5593L2.28953 16.4363L2.32462 16.3133L2.34221 16.1903L2.37729 16.0497L2.32462 15.9267L2.3598 15.8037L2.37729 15.6807L2.32462 15.5401L2.39489 15.4171L2.34221 15.2941L2.30702 15.171L2.28953 15.0305L2.32462 14.9075L2.44757 14.8547L2.55304 14.8196L2.69359 14.8372L2.79895 14.7669L2.86922 14.6439L2.99218 14.6087L3.09754 14.556L3.13273 14.433L3.25568 14.3627L3.29077 14.2573L3.27327 14.1167L3.16781 14.0288L3.09754 13.9234L2.99218 13.8355L2.86922 13.7828L2.71108 13.8531L2.58812 13.8004L2.46517 13.7828L2.3598 13.7125L2.30702 13.5719L2.37729 13.4489V13.3259L2.39489 13.2029L2.43008 13.0623L2.34221 12.9393L2.37729 12.8163L2.39489 12.6932L2.32462 12.535L2.25434 12.4999L2.23685 12.3593L2.14898 12.2538L2.02603 12.2187L1.90307 12.2011L1.76252 12.2363L1.63957 12.1484L1.51661 12.1835L1.41115 12.2538L1.30578 12.3417V12.4823V12.5701Z" fill="white" fill-opacity="0.32"/>
<path d="M4.32728 9.72359L4.39755 9.74119L4.52051 9.70599L4.64357 9.67089L4.76652 9.65328L4.88948 9.67089L5.01244 9.70599L5.1354 9.61819L5.25835 9.67089L5.3813 9.61819L5.46917 9.60059V9.72359L5.43399 9.84659L5.45157 9.96959L5.43399 10.0926L5.46917 10.2332L5.43399 10.3562L5.46917 10.4792V10.6022V10.7252L5.48677 10.8483L5.45157 10.9713L5.53945 11.1119L5.43399 11.2349L5.48677 11.3579L5.53945 11.4809L5.43399 11.6039L5.55694 11.7269L5.50426 11.8499L5.45157 11.9905L5.53945 12.1135L5.46917 12.2365L5.50426 12.3595L5.48677 12.4825L5.50426 12.6056L5.45157 12.7286L5.55694 12.8693L5.45157 12.9923L5.43399 13.1153L5.52185 13.2383L5.48677 13.3613L5.53945 13.5019L5.46917 13.6249V13.7479L5.52185 13.8533L5.59212 13.7655L5.73268 13.8182L5.82044 13.7128L5.961 13.7479L6.06646 13.6952L6.18942 13.66L6.29477 13.5722L6.41772 13.537H6.54068L6.66364 13.6425L6.7867 13.537L6.90965 13.5722L7.0326 13.6425L7.13797 13.7128L7.29611 13.66L7.41907 13.6952L7.52443 13.783L7.6123 13.8709L7.66498 13.9939L7.77033 14.0818L7.8758 14.1521L7.92848 14.2575L8.03384 14.3454L8.06904 14.4684L8.13931 14.5738L8.19199 14.6793L8.22707 14.8023L8.31494 14.9077L8.38521 15.0132L8.35013 15.1537L8.4203 15.2767L8.49058 15.3822L8.40281 15.5052L8.50817 15.6458L8.47309 15.7688L8.4379 15.8918L8.40281 16.0148L8.45549 16.1378L8.49058 16.2608L8.4203 16.4014L8.4379 16.5244L8.40281 16.6474L8.49058 16.7705L8.4379 16.8935L8.45549 17.034L8.50817 17.1571L8.45549 17.2801L8.40281 17.4031L8.50817 17.5261L8.49058 17.6667L8.4379 17.7897L8.40281 17.9128V18.0357L8.45549 18.1588L8.47309 18.2818L8.4203 18.4224L8.50817 18.5454L8.4379 18.6684V18.7914L8.50817 18.932V19.055L8.40281 19.178L8.4203 19.3011L8.50817 19.4241L8.4203 19.5647L8.4379 19.6877L8.49058 19.8107L8.50817 19.9337L8.47309 20.0567L8.49058 20.1973L8.47309 20.3203L8.49058 20.4433V20.5663L8.40281 20.6893L8.49058 20.8299V20.9529L8.50817 21.0759L8.45549 21.1989V21.3395L8.50817 21.4625L8.40281 21.5855L8.4203 21.7086L8.49058 21.8491L8.40281 21.9722V22.0952L8.49058 22.2533H8.33254L8.20959 22.2709L8.08663 22.1655L7.96357 22.2709L7.84062 22.2006H7.71766L7.6123 22.183L7.48934 22.2885L7.38388 22.2006V22.0952L7.31361 21.9722L7.34879 21.8491L7.40147 21.7261L7.38388 21.6031L7.33119 21.4625L7.34879 21.3395V21.2165L7.40147 21.0935L7.34879 20.9705L7.31361 20.8475L7.29611 20.7069L7.33119 20.5839L7.40147 20.4609L7.41907 20.3379L7.40147 20.2149L7.29611 20.0743L7.33119 19.9513L7.40147 19.8282L7.34879 19.7052L7.36639 19.5822V19.4416L7.34879 19.3186L7.41907 19.1956L7.40147 19.0726L7.36639 18.932L7.31361 18.809L7.29611 18.686L7.34879 18.563L7.38388 18.44L7.33119 18.2994L7.36639 18.1764L7.31361 18.0534L7.40147 17.9304L7.36639 17.8074L7.34879 17.6667L7.36639 17.5437L7.31361 17.4207L7.33119 17.2976L7.34879 17.1746L7.40147 17.034L7.31361 16.911L7.41907 16.788V16.665L7.31361 16.5244L7.34879 16.4014L7.36639 16.2784L7.40147 16.1554L7.34879 16.0148L7.38388 15.8918L7.40147 15.7688L7.33119 15.6282L7.40147 15.4876L7.31361 15.3822L7.24344 15.2592L7.17315 15.1713L7.15556 15.0307L7.0502 14.9429L6.96233 14.855L6.89206 14.732L6.7691 14.6968L6.61096 14.732L6.50559 14.6793L6.36505 14.6617L6.24209 14.732L6.11913 14.6968L5.99618 14.7144L5.87323 14.732L5.76776 14.8374L5.64481 14.8901L5.55694 14.978L5.48677 15.101L5.55694 15.2592L5.52185 15.3646V15.4876L5.48677 15.6106L5.52185 15.7336L5.45157 15.8567L5.46917 15.9972L5.45157 16.1203L5.41649 16.2433L5.52185 16.3663L5.48677 16.4893L5.45157 16.6299L5.41649 16.7529L5.52185 16.8759L5.45157 16.9989L5.41649 17.1395L5.45157 17.2625L5.46917 17.3855L5.52185 17.5085L5.41649 17.6315V17.7721L5.43399 17.8951V18.0181L5.52185 18.1412L5.46917 18.2818L5.43399 18.4048V18.5278L5.50426 18.6509L5.46917 18.7914L5.52185 18.9145V19.0375L5.41649 19.1605L5.50426 19.2835L5.48677 19.4241L5.53945 19.5471L5.43399 19.6701L5.48677 19.7931L5.52185 19.9337L5.45157 20.0567L5.48677 20.1797L5.52185 20.3027L5.48677 20.4433L5.52185 20.5663L5.43399 20.6893L5.48677 20.8123L5.52185 20.9529L5.50426 21.0759L5.43399 21.1989L5.41649 21.3219V21.4625V21.5855L5.43399 21.7086L5.52185 21.8491L5.50426 21.9722L5.45157 22.0952L5.46917 22.2182L5.34622 22.2709L5.20567 22.2006L5.08271 22.2357L4.94216 22.2182L4.81921 22.2533L4.67866 22.2006L4.5557 22.2709L4.41515 22.2357L4.257 22.2533L4.32728 22.0952L4.22192 21.9722L4.34488 21.8491L4.23951 21.7261L4.32728 21.6031L4.2746 21.4625L4.22192 21.3395L4.2922 21.2165L4.257 21.0935L4.34488 20.9705L4.2746 20.8475L4.22192 20.7069L4.32728 20.5839L4.257 20.4609L4.32728 20.3379L4.34488 20.2149L4.3098 20.0918L4.257 19.9513L4.23951 19.8282L4.2922 19.7052L4.34488 19.5822L4.3098 19.4592L4.32728 19.3362L4.34488 19.1956L4.23951 19.0726L4.2746 18.9496L4.34488 18.8266V18.7036L4.32728 18.563L4.2746 18.44L4.22192 18.317L4.34488 18.194L4.32728 18.071L4.257 17.9478L4.34488 17.8074L4.3098 17.6842L4.32728 17.5612L4.257 17.4382L4.23951 17.3152L4.32728 17.1922L4.22192 17.0516L4.23951 16.9286L4.2922 16.8056L4.32728 16.6826L4.2922 16.5596L4.32728 16.4366L4.23951 16.296L4.22192 16.173L4.34488 16.05L4.23951 15.9269V15.8039L4.2922 15.6809L4.22192 15.5403L4.32728 15.4173L4.22192 15.2943L4.2922 15.1713L4.2746 15.0483L4.34488 14.9253L4.3098 14.7847L4.32728 14.6617L4.257 14.5387L4.32728 14.4157L4.3098 14.2927L4.34488 14.1521L4.2922 14.0291L4.257 13.9061L4.2922 13.783L4.23951 13.66L4.257 13.537L4.32728 13.3964L4.2922 13.2734L4.23951 13.1504L4.2922 13.0274L4.22192 12.9044L4.2922 12.7637V12.6407L4.3098 12.5177V12.3947L4.23951 12.2541L4.22192 12.1311L4.23951 12.0081L4.2922 11.8851L4.34488 11.7621L4.23951 11.639V11.4985L4.257 11.3754L4.32728 11.2524V11.1294L4.2922 10.9888L4.3098 10.8658L4.32728 10.7428L4.257 10.6198L4.2746 10.4968L4.34488 10.3562L4.2922 10.2332L4.23951 10.1102V9.98719L4.32728 9.86419V9.72359Z" fill="white" fill-opacity="0.32"/>
<path d="M13.9012 20.0744L13.7958 20.1095L13.6553 20.0216L13.5147 20.0392L13.3743 20.0041L13.2512 20.1095H13.1108L12.9702 20.0568L12.8473 20.1271L12.7067 20.0568V20.1974L12.6891 20.3204V20.4434L12.654 20.5664L12.5837 20.6718L12.6188 20.8124L12.5486 20.9179L12.4783 21.0233L12.3905 21.1287H12.25L12.1445 21.199L12.0041 21.1639L11.8986 21.2517L11.7756 21.2166L11.6527 21.2342L11.5121 21.2517L11.3716 21.2342L11.2486 21.1815L11.1609 21.076L11.1081 20.953L10.9676 20.9003V20.7421L10.8974 20.6367L10.8798 20.5137L10.8622 20.3907L10.8798 20.2677L10.8622 20.1446L10.8798 20.0216L10.8446 19.8986L10.8798 19.7756L10.8446 19.6526L10.8622 19.5296L10.8446 19.4066L10.8271 19.2836L10.8622 19.1606L10.7744 19.0375L10.8798 18.9145L10.8271 18.7915L10.7744 18.6685L10.8798 18.5455L10.7744 18.3873L10.9324 18.4225L11.0554 18.4576L11.1784 18.3698L11.3013 18.4401L11.4244 18.4225H11.5473H11.6703L11.7932 18.4576L11.9162 18.3698L12.0392 18.4752H12.1621L12.2851 18.3873L12.408 18.4225L12.531 18.3698L12.654 18.4401H12.777L12.8999 18.3873L13.0229 18.3698L13.1458 18.4752L13.2688 18.4049L13.3918 18.4752L13.5147 18.4576H13.6377L13.7255 18.4049L13.6905 18.2995V18.1765L13.8134 18.0535L13.7079 17.9305L13.7255 17.8074L13.7782 17.6844L13.8134 17.5614L13.7255 17.4384L13.7079 17.3154L13.7255 17.1924L13.7431 17.0694L13.8134 16.9464L13.7958 16.8234L13.7782 16.7002L13.7958 16.5772L13.7607 16.4542L13.7958 16.3312L13.7782 16.2082V16.0852L13.7958 15.9622L13.7431 15.8392L13.7079 15.7162L13.7782 15.5931L13.7431 15.4701L13.6905 15.3471L13.7607 15.2065L13.6553 15.1011L13.6377 14.9781V14.8375L13.6202 14.6969L13.5147 14.6091L13.4796 14.3806L13.462 14.24L13.3567 14.1697L13.2864 14.0467L13.1283 14.0292L13.058 13.9061L12.935 13.8534H12.7945L12.7067 13.748L12.6012 13.6601L12.4432 13.7304L12.3202 13.6953L12.1973 13.625L12.0743 13.5723L11.9513 13.5547L11.8108 13.6074L11.6878 13.625L11.5648 13.5723L11.4419 13.6777L11.3189 13.6074L11.196 13.625L11.0906 13.7128L10.9676 13.748L10.8271 13.6953L10.7216 13.748L10.6339 13.871H10.4757L10.3704 13.9413L10.3177 14.0643L10.2298 14.1522L10.1244 14.2225L10.0542 14.3279L9.9663 14.4158L9.91362 14.5388L9.86094 14.6442L9.72038 14.7145L9.75547 14.8551L9.72038 14.9781V15.1011L9.63252 15.2065V15.3296L9.66771 15.4526L9.57983 15.5756L9.59743 15.6986L9.66771 15.8216L9.57983 15.9446V16.0676L9.66771 16.1906L9.65011 16.3136L9.6852 16.4366L9.57983 16.5597L9.66771 16.6828L9.61492 16.8057V16.9288L9.59743 17.0518L9.70279 17.1748L9.61492 17.2978L9.63252 17.4208L9.70279 17.5438L9.66771 17.6669L9.61492 17.7899L9.65011 17.9129L9.70279 18.0359L9.6852 18.1589V18.2819L9.63252 18.4049L9.6852 18.5279L9.72038 18.6509L9.73787 18.774L9.70279 18.897L9.63252 19.02V19.143V19.266L9.73787 19.389L9.72038 19.512L9.65011 19.635L9.70279 19.758L9.6852 19.8811V20.0041L9.70279 20.1271L9.63252 20.2501L9.65011 20.3731L9.70279 20.4961L9.77307 20.6015L9.80815 20.7246L9.79067 20.8476L9.80815 20.9706L9.89602 21.076L9.91362 21.199L10.0366 21.2693V21.4275L10.1419 21.4978L10.2298 21.5856L10.3177 21.6735L10.4406 21.7086L10.546 21.7789L10.6513 21.8492L10.6689 22.1305L10.8271 22.0778L10.9149 22.2184L11.0378 22.2535L11.1784 22.1832L11.3013 22.2359L11.4244 22.2711L11.5473 22.3062L11.6703 22.2711L11.7932 22.3062L11.9162 22.3238L12.0392 22.2535L12.1797 22.3238L12.3027 22.2535L12.4256 22.2008L12.5486 22.1481L12.6891 22.1656L12.7945 22.1129L12.9175 22.0602H13.058L13.1634 21.9723L13.2337 21.8492L13.3391 21.7966L13.4444 21.7262L13.4796 21.5856L13.6026 21.5153L13.6729 21.4099L13.7607 21.3045L13.7782 21.1815L13.8661 21.076L13.9188 20.953L13.954 20.83L13.8661 20.6894L13.9012 20.5664V20.4434L13.954 20.3204L13.9012 20.1974V20.0744ZM10.8622 15.2417L10.8974 15.1187L11.0378 15.066L11.1081 14.9605L11.2136 14.9078L11.2662 14.7496L11.3892 14.6969L11.5297 14.7145L11.6527 14.6266L11.7756 14.6969L11.8986 14.7145L12.0216 14.7496L12.1445 14.7848L12.2324 14.8727L12.3027 14.9781L12.4432 15.0132L12.5135 15.1187L12.6012 15.2241L12.6891 15.3296L12.6715 15.4701L12.7418 15.5756L12.7243 15.6986L12.777 15.8216L12.7418 15.9446L12.7594 16.0676L12.7945 16.1906L12.8121 16.3136V16.4366L12.777 16.5597L12.7243 16.6828L12.8121 16.8057L12.7418 16.9288L12.777 17.0518L12.7594 17.1748L12.777 17.2803L12.6715 17.2451L12.5486 17.2627L12.4256 17.2451L12.3027 17.2803L12.1797 17.2451L12.0567 17.2803L11.9338 17.2627L11.8108 17.2803L11.6878 17.2978L11.5648 17.2627L11.4419 17.3505L11.3189 17.2451L11.196 17.2978L11.073 17.3505L10.9851 17.2627L10.8798 17.1748L10.9324 17.0518L10.9676 16.9288L10.8798 16.8057L10.95 16.6828L10.9324 16.5597V16.4366V16.3136L10.9676 16.1906L10.8798 16.0676L10.9851 15.9446V15.8216L10.8974 15.6986L10.9324 15.5756L10.8446 15.3823L10.8622 15.2417Z" fill="white" fill-opacity="0.32"/>
</svg>
